<?xml version="1.0" encoding="UTF-8" standalone="no"?><!-- Generator: Gravit.io --><svg xmlns="http://www.w3.org/2000/svg" xmlns:xlink="http://www.w3.org/1999/xlink" style="isolation:isolate" viewBox="0 0 185 40" width="185pt" height="40pt"><defs><clipPath id="_clipPath_OULjdmKMHVROSdF11YF9lI4LcVPAsTVK"><rect width="185" height="40"/></clipPath></defs><g clip-path="url(#_clipPath_OULjdmKMHVROSdF11YF9lI4LcVPAsTVK)"><clipPath id="_clipPath_puPfGLtfxgRP8ldJT3e19RAn4ZFCxrfQ"><rect x="0" y="0" width="185" height="40" transform="matrix(1,0,0,1,0,0)" fill="rgb(255,255,255)"/></clipPath><g clip-path="url(#_clipPath_puPfGLtfxgRP8ldJT3e19RAn4ZFCxrfQ)"><g><linearGradient id="_lgradient_4" x1="0.08824031812669278" y1="0.8567233120195344" x2="0.527524703990814" y2="-0.08979404567631732" gradientTransform="matrix(31.496,0,0,39.871,-0.008,0.071)" gradientUnits="userSpaceOnUse"><stop offset="0%" stop-opacity="1" style="stop-color:rgb(17,166,233)"/><stop offset="100%" stop-opacity="1" style="stop-color:rgb(233,243,99)"/></linearGradient><path d=" M 25.996 10.027 C 26.102 9.914 26.273 9.887 26.414 9.961 C 26.863 10.207 27.07 10.34 27.5 10.598 C 28.742 9.031 30.074 7.539 31.488 6.129 C 29.844 4.93 28.051 3.945 26.156 3.199 C 23.93 5.043 20.531 5.293 17.84 4.633 C 14.848 3.906 13.609 1.922 14.977 0.246 C 13.203 0.012 11.406 0.012 9.633 0.246 C 8.434 1.738 7.387 3.344 6.512 5.043 C 6.891 5.043 7.09 5.043 7.508 4.984 C 7.637 4.984 7.688 5.074 7.629 5.191 C 7.566 5.313 7.539 5.344 7.488 5.441 C 7.414 5.57 7.285 5.652 7.141 5.66 C 6.742 5.66 6.551 5.66 6.141 5.711 C 2.223 13.949 -0.16 22.441 0 31.605 C 1.43 32.691 2.891 33.73 4.387 34.727 C 4.695 31.336 5.383 27.992 6.441 24.758 C 5.984 23.043 5.684 22.195 5.164 20.598 C 5.02 20.055 5.211 19.48 5.652 19.133 C 5.824 18.969 6.066 18.906 6.293 18.969 C 6.52 19.031 6.695 19.207 6.762 19.434 C 7.059 20.34 7.199 20.809 7.488 21.766 C 8.387 19.305 9.43 16.895 10.609 14.555 C 10.867 14.004 11.465 13.695 12.066 13.809 C 12.32 13.891 12.523 14.086 12.609 14.34 C 12.691 14.598 12.648 14.875 12.492 15.094 C 11.727 16.559 11.348 17.309 10.641 18.832 C 11.637 18.285 12.176 18.027 13.262 17.516 C 13.504 17.371 13.797 17.348 14.059 17.445 C 14.32 17.543 14.523 17.758 14.609 18.027 C 14.727 18.641 14.398 19.258 13.82 19.5 C 12.273 20.184 10.773 20.965 9.324 21.836 C 8.664 23.43 8.324 24.227 7.816 25.824 C 8.656 25.273 9.094 25.004 10.031 24.469 C 10.254 24.328 10.531 24.309 10.773 24.414 C 11.016 24.52 11.188 24.738 11.238 24.996 C 11.387 25.594 11.133 26.219 10.609 26.543 C 9.316 27.242 8.07 28.023 6.879 28.883 C 6.238 31.043 5.809 33.262 5.594 35.504 C 7.977 37.051 10.418 38.496 12.863 39.941 C 15.016 29.164 20.359 19.879 26.98 11.215 C 26.555 10.957 26.332 10.836 25.887 10.586 C 25.82 10.563 25.773 10.508 25.754 10.441 C 25.738 10.375 25.754 10.301 25.797 10.25 C 25.859 10.172 25.926 10.098 25.996 10.027 Z  M 10.32 5.301 L 10.172 5.563 C 10.086 5.691 9.945 5.766 9.793 5.762 C 9.043 5.703 8.684 5.68 7.977 5.68 C 7.848 5.68 7.797 5.582 7.855 5.461 C 7.918 5.344 7.977 5.301 7.977 5.203 C 8.074 5.094 8.219 5.035 8.367 5.043 C 9.074 5.043 9.441 5.043 10.191 5.043 C 10.332 5.043 10.391 5.184 10.32 5.301 Z  M 13.313 5.672 C 13.266 5.762 13.211 5.848 13.152 5.93 C 13.055 6.059 12.902 6.125 12.742 6.109 C 11.957 5.98 11.555 5.93 10.75 5.852 C 10.691 5.852 10.637 5.816 10.609 5.766 C 10.582 5.711 10.586 5.648 10.621 5.602 L 10.77 5.344 C 10.859 5.215 11.004 5.145 11.156 5.152 C 11.934 5.234 12.324 5.293 13.152 5.414 C 13.281 5.441 13.34 5.551 13.262 5.672 L 13.313 5.672 Z  M 16.395 6.32 L 16.223 6.578 C 16.117 6.703 15.953 6.762 15.793 6.727 C 14.977 6.527 14.566 6.438 13.801 6.289 C 13.73 6.348 13.629 6.344 13.566 6.273 C 13.504 6.207 13.508 6.105 13.57 6.039 L 13.742 5.781 C 13.836 5.652 14 5.586 14.16 5.613 C 14.965 5.77 15.387 5.852 16.215 6.051 C 16.363 6.039 16.434 6.199 16.344 6.32 L 16.395 6.32 Z  M 19.535 7.219 C 19.465 7.301 19.402 7.387 19.344 7.477 C 19.234 7.602 19.063 7.648 18.906 7.598 C 18.078 7.328 17.668 7.207 16.84 6.988 C 16.684 6.988 16.621 6.816 16.711 6.699 C 16.801 6.578 16.813 6.539 16.891 6.438 C 16.996 6.313 17.16 6.258 17.32 6.301 C 18.148 6.52 18.566 6.648 19.402 6.906 C 19.512 6.969 19.563 7.098 19.484 7.219 L 19.535 7.219 Z  M 22.625 8.363 L 22.434 8.621 C 22.324 8.742 22.148 8.777 21.996 8.711 C 21.188 8.395 20.781 8.234 19.953 7.945 C 19.883 7.934 19.828 7.891 19.801 7.824 C 19.777 7.762 19.789 7.688 19.832 7.637 L 19.941 7.375 C 20.055 7.254 20.227 7.211 20.383 7.266 C 21.207 7.555 21.617 7.715 22.434 8.043 C 22.508 8.051 22.57 8.098 22.598 8.164 C 22.629 8.23 22.617 8.305 22.574 8.363 L 22.625 8.363 Z  M 25.617 9.758 L 25.418 10.008 C 25.309 10.121 25.137 10.148 24.996 10.078 C 24.23 9.691 23.832 9.5 23.004 9.152 C 22.938 9.133 22.883 9.082 22.863 9.016 C 22.84 8.949 22.852 8.879 22.895 8.824 L 23.094 8.563 C 23.203 8.445 23.379 8.414 23.523 8.484 C 24.328 8.832 24.719 9.023 25.516 9.422 C 25.57 9.457 25.605 9.516 25.613 9.582 C 25.617 9.648 25.594 9.715 25.547 9.758 L 25.617 9.758 Z " fill="url(#_lgradient_4)"/><path d=" M 31.863 31.607 L 31.863 17.476 C 31.863 15.518 33.446 13.935 35.404 13.935 L 42.464 13.935 C 43.407 13.913 44.313 14.298 44.958 14.987 C 45.641 15.632 46.021 16.538 46.01 17.476 L 46.01 24.536 C 46.032 25.485 45.647 26.401 44.958 27.057 C 44.302 27.724 43.402 28.093 42.464 28.077 L 35.404 28.077 L 35.404 31.607 L 31.863 31.607 Z  M 42.464 24.536 L 42.464 17.476 L 35.404 17.476 L 35.404 24.536 L 42.464 24.536 Z " fill="rgb(238,238,238)"/><path d=" M 50.424 28.077 C 49.48 28.099 48.575 27.73 47.919 27.057 C 47.246 26.39 46.878 25.479 46.894 24.536 L 46.894 17.476 C 46.872 16.538 47.241 15.638 47.919 14.987 C 48.569 14.298 49.48 13.919 50.424 13.935 L 61.025 13.935 L 61.025 28.077 L 50.424 28.077 Z  M 57.495 24.536 L 57.495 17.476 L 50.424 17.476 L 50.424 24.536 L 57.495 24.536 Z " fill="rgb(238,238,238)"/><path d=" M 61.914 28.077 L 61.914 24.536 L 72.515 24.536 L 72.515 22.779 L 65.455 22.779 C 64.512 22.801 63.601 22.427 62.939 21.754 C 62.272 21.087 61.898 20.176 61.914 19.233 L 61.914 17.476 C 61.904 16.543 62.272 15.643 62.939 14.987 C 63.59 14.293 64.506 13.908 65.455 13.935 L 76.056 13.935 L 76.056 17.476 L 65.455 17.476 L 65.455 19.233 L 72.515 19.233 C 73.454 19.222 74.359 19.601 75.004 20.285 C 75.688 20.935 76.067 21.836 76.056 22.779 L 76.056 24.536 C 76.056 26.493 74.473 28.077 72.515 28.077 L 61.914 28.077 Z " fill="rgb(238,238,238)"/><path d=" M 76.946 28.077 L 76.946 24.536 L 87.547 24.536 L 87.547 22.779 L 80.476 22.779 C 79.532 22.795 78.627 22.427 77.971 21.754 C 77.298 21.093 76.924 20.182 76.946 19.233 L 76.946 17.476 C 76.929 16.543 77.298 15.638 77.971 14.987 C 78.616 14.293 79.527 13.913 80.476 13.935 L 91.104 13.935 L 91.104 17.476 L 80.476 17.476 L 80.476 19.233 L 87.547 19.233 C 88.485 19.227 89.38 19.607 90.025 20.285 C 90.714 20.93 91.104 21.836 91.104 22.779 L 91.104 24.536 C 91.104 26.488 89.526 28.071 87.574 28.077 L 76.946 28.077 Z " fill="rgb(238,238,238)"/><path d=" M 95.507 28.077 C 94.564 28.099 93.653 27.73 92.986 27.057 C 92.319 26.39 91.95 25.479 91.961 24.536 L 91.961 10.405 L 95.507 10.405 L 95.507 13.935 L 99.037 13.935 L 99.037 17.476 L 95.507 17.476 L 95.507 24.536 L 99.037 24.536 L 99.037 28.077 L 95.507 28.077 Z " fill="rgb(238,238,238)"/><path d=" M 99.921 28.077 L 99.921 17.476 C 99.899 16.538 100.268 15.638 100.946 14.987 C 101.597 14.298 102.508 13.919 103.451 13.935 L 110.484 13.935 L 110.484 17.476 L 103.451 17.476 L 103.451 28.077 L 99.921 28.077 Z " fill="rgb(238,238,238)"/><path d=" M 114.942 28.077 C 113.998 28.099 113.092 27.73 112.436 27.057 C 111.764 26.39 111.39 25.479 111.411 24.536 L 111.411 17.476 C 111.384 16.538 111.758 15.638 112.436 14.987 C 113.087 14.298 113.993 13.919 114.942 13.935 L 122.013 13.935 C 122.956 13.919 123.862 14.298 124.507 14.987 C 125.179 15.638 125.564 16.538 125.559 17.476 L 125.559 22.779 L 114.942 22.779 L 114.942 24.536 L 125.559 24.536 L 125.559 28.077 L 114.942 28.077 Z  M 122.013 19.233 L 122.013 17.476 L 114.942 17.476 L 114.942 19.233 L 122.013 19.233 Z " fill="rgb(238,238,238)"/><path d=" M 129.973 28.077 C 129.029 28.099 128.118 27.73 127.451 27.057 C 126.784 26.39 126.416 25.479 126.426 24.536 L 126.426 17.476 C 126.426 15.518 128.015 13.935 129.973 13.935 L 137.044 13.935 C 137.982 13.919 138.882 14.298 139.522 14.987 C 140.205 15.632 140.585 16.538 140.574 17.476 L 140.574 22.779 L 129.973 22.779 L 129.973 24.536 L 140.574 24.536 L 140.574 28.077 L 129.973 28.077 Z  M 137.044 19.233 L 137.044 17.476 L 129.973 17.476 L 129.973 19.233 L 137.044 19.233 Z " fill="rgb(238,238,238)"/><linearGradient id="_lgradient_5" x1="-0.000057642778068078826" y1="0.49962826082315326" x2="0.9999980419007826" y2="0.49962826082315326" gradientTransform="matrix(41.537,0,0,17.673,141.463,10.405)" gradientUnits="userSpaceOnUse"><stop offset="0%" stop-opacity="1" style="stop-color:rgb(17,166,233)"/><stop offset="100%" stop-opacity="1" style="stop-color:rgb(233,243,99)"/></linearGradient><path d=" M 141.463 28.077 L 141.463 24.536 L 144.988 24.536 L 144.988 28.077 L 141.463 28.077 Z  M 145.877 28.077 L 145.877 17.476 C 145.866 16.543 146.235 15.643 146.902 14.987 C 147.547 14.298 148.458 13.913 149.407 13.935 L 156.478 13.935 C 157.422 13.924 158.322 14.304 158.973 14.987 C 159.656 15.632 160.035 16.538 160.025 17.476 L 160.025 28.077 L 156.478 28.077 L 156.478 17.476 L 149.407 17.476 L 149.407 28.077 L 145.877 28.077 Z  M 164.439 28.077 C 163.495 28.093 162.584 27.724 161.923 27.057 C 161.256 26.39 160.892 25.479 160.909 24.536 L 160.909 17.476 C 160.887 16.543 161.25 15.638 161.917 14.987 C 162.579 14.298 163.49 13.919 164.439 13.935 L 171.51 13.935 C 172.448 13.919 173.348 14.298 173.988 14.987 C 174.671 15.632 175.051 16.538 175.04 17.476 L 175.04 22.779 L 164.466 22.779 L 164.466 24.536 L 175.067 24.536 L 175.067 28.077 L 164.439 28.077 Z  M 171.51 19.233 L 171.51 17.476 L 164.466 17.476 L 164.466 19.233 L 171.51 19.233 Z  M 179.459 28.077 C 178.516 28.099 177.61 27.724 176.954 27.057 C 176.287 26.39 175.913 25.479 175.929 24.536 L 175.929 10.405 L 179.459 10.405 L 179.459 13.935 L 183 13.935 L 183 17.476 L 179.459 17.476 L 179.459 24.536 L 183 24.536 L 183 28.077 L 179.459 28.077 Z " fill="url(#_lgradient_5)"/></g></g><path d=" M 145.996 31.914 L 145.996 32.544 L 145.114 32.544 L 145.114 35.484 L 145.996 35.484 L 145.996 36.114 L 143.524 36.114 L 143.524 35.484 L 144.4 35.484 L 144.4 32.544 L 143.524 32.544 L 143.524 31.914 L 145.996 31.914 L 145.996 31.914 Z  M 147.73 36.114 L 147.064 36.114 L 147.064 31.914 L 147.742 31.914 L 149.05 34.506 L 149.05 34.506 Q 149.158 34.692 149.2 34.794 L 149.2 34.794 L 149.2 34.794 Q 149.188 34.566 149.188 34.506 L 149.188 34.506 L 149.188 31.914 L 149.848 31.914 L 149.848 36.114 L 149.2 36.114 L 147.868 33.51 L 147.868 33.51 Q 147.76 33.324 147.712 33.222 L 147.712 33.222 L 147.712 33.222 Q 147.73 33.312 147.73 33.51 L 147.73 33.51 L 147.73 36.114 L 147.73 36.114 Z  M 152.2 36.186 L 152.2 36.186 L 152.2 36.186 Q 151.69 36.186 151.282 35.892 L 151.282 35.892 L 151.282 35.892 Q 150.874 35.598 150.706 35.106 L 150.706 35.106 L 151.354 34.866 L 151.354 34.866 Q 151.492 35.16 151.735 35.337 L 151.735 35.337 L 151.735 35.337 Q 151.978 35.514 152.26 35.514 L 152.26 35.514 L 152.26 35.514 Q 152.536 35.514 152.704 35.37 L 152.704 35.37 L 152.704 35.37 Q 152.872 35.226 152.872 34.956 L 152.872 34.956 L 152.872 34.956 Q 152.872 34.728 152.644 34.551 L 152.644 34.551 L 152.644 34.551 Q 152.416 34.374 152.008 34.194 L 152.008 34.194 L 152.008 34.194 Q 151.75 34.08 151.594 33.996 L 151.594 33.996 L 151.594 33.996 Q 151.438 33.912 151.243 33.762 L 151.243 33.762 L 151.243 33.762 Q 151.048 33.612 150.952 33.408 L 150.952 33.408 L 150.952 33.408 Q 150.856 33.204 150.856 32.952 L 150.856 32.952 L 150.856 32.952 Q 150.856 32.484 151.213 32.163 L 151.213 32.163 L 151.213 32.163 Q 151.57 31.842 152.152 31.842 L 152.152 31.842 L 152.152 31.842 Q 152.614 31.842 152.959 32.094 L 152.959 32.094 L 152.959 32.094 Q 153.304 32.346 153.418 32.736 L 153.418 32.736 L 152.776 32.952 L 152.776 32.952 Q 152.56 32.514 152.11 32.514 L 152.11 32.514 L 152.11 32.514 Q 151.876 32.514 151.726 32.634 L 151.726 32.634 L 151.726 32.634 Q 151.576 32.754 151.576 32.964 L 151.576 32.964 L 151.576 32.964 Q 151.576 33.012 151.588 33.057 L 151.588 33.057 L 151.588 33.057 Q 151.6 33.102 151.63 33.141 L 151.63 33.141 L 151.63 33.141 Q 151.66 33.18 151.687 33.213 L 151.687 33.213 L 151.687 33.213 Q 151.714 33.246 151.771 33.285 L 151.771 33.285 L 151.771 33.285 Q 151.828 33.324 151.867 33.348 L 151.867 33.348 L 151.867 33.348 Q 151.906 33.372 151.984 33.411 L 151.984 33.411 L 151.984 33.411 Q 152.062 33.45 152.104 33.468 L 152.104 33.468 L 152.104 33.468 Q 152.146 33.486 152.242 33.531 L 152.242 33.531 L 152.242 33.531 Q 152.338 33.576 152.38 33.594 L 152.38 33.594 L 152.38 33.594 Q 152.632 33.708 152.8 33.807 L 152.8 33.807 L 152.8 33.807 Q 152.968 33.906 153.172 34.068 L 153.172 34.068 L 153.172 34.068 Q 153.376 34.23 153.484 34.452 L 153.484 34.452 L 153.484 34.452 Q 153.592 34.674 153.592 34.938 L 153.592 34.938 L 153.592 34.938 Q 153.592 35.514 153.187 35.85 L 153.187 35.85 L 153.187 35.85 Q 152.782 36.186 152.2 36.186 Z  M 156.202 36.114 L 155.488 36.114 L 155.488 32.598 L 154.27 32.598 L 154.27 31.914 L 157.426 31.914 L 157.426 32.598 L 156.202 32.598 L 156.202 36.114 L 156.202 36.114 Z  M 160.978 33.186 L 160.978 33.186 L 160.978 33.186 Q 160.978 33.594 160.759 33.924 L 160.759 33.924 L 160.759 33.924 Q 160.54 34.254 160.126 34.392 L 160.126 34.392 L 160.972 36.114 L 160.18 36.114 L 159.364 34.47 L 158.866 34.47 L 158.866 36.114 L 158.152 36.114 L 158.152 31.914 L 159.604 31.914 L 159.604 31.914 Q 159.976 31.914 160.252 32.019 L 160.252 32.019 L 160.252 32.019 Q 160.528 32.124 160.681 32.307 L 160.681 32.307 L 160.681 32.307 Q 160.834 32.49 160.906 32.709 L 160.906 32.709 L 160.906 32.709 Q 160.978 32.928 160.978 33.186 Z  M 159.616 32.586 L 158.866 32.586 L 158.866 33.798 L 159.616 33.798 L 159.616 33.798 Q 159.952 33.798 160.099 33.627 L 160.099 33.627 L 160.099 33.627 Q 160.246 33.456 160.246 33.192 L 160.246 33.192 L 160.246 33.192 Q 160.246 32.94 160.102 32.763 L 160.102 32.763 L 160.102 32.763 Q 159.958 32.586 159.616 32.586 L 159.616 32.586 L 159.616 32.586 Z  M 163.24 36.186 L 163.24 36.186 L 163.24 36.186 Q 162.616 36.186 162.22 35.787 L 162.22 35.787 L 162.22 35.787 Q 161.824 35.388 161.824 34.512 L 161.824 34.512 L 161.824 31.914 L 162.532 31.914 L 162.532 34.512 L 162.532 34.512 Q 162.532 35.058 162.718 35.283 L 162.718 35.283 L 162.718 35.283 Q 162.904 35.508 163.24 35.508 L 163.24 35.508 L 163.24 35.508 Q 163.948 35.508 163.948 34.512 L 163.948 34.512 L 163.948 31.914 L 164.662 31.914 L 164.662 34.512 L 164.662 34.512 Q 164.662 35.376 164.266 35.781 L 164.266 35.781 L 164.266 35.781 Q 163.87 36.186 163.24 36.186 Z  M 167.008 36.18 L 167.008 36.18 L 167.008 36.18 Q 166.654 36.18 166.369 36.054 L 166.369 36.054 L 166.369 36.054 Q 166.084 35.928 165.895 35.721 L 165.895 35.721 L 165.895 35.721 Q 165.706 35.514 165.58 35.229 L 165.58 35.229 L 165.58 35.229 Q 165.454 34.944 165.4 34.641 L 165.4 34.641 L 165.4 34.641 Q 165.346 34.338 165.346 34.014 L 165.346 34.014 L 165.346 34.014 Q 165.346 33.618 165.439 33.249 L 165.439 33.249 L 165.439 33.249 Q 165.532 32.88 165.724 32.559 L 165.724 32.559 L 165.724 32.559 Q 165.916 32.238 166.246 32.043 L 166.246 32.043 L 166.246 32.043 Q 166.576 31.848 167.008 31.848 L 167.008 31.848 L 167.008 31.848 Q 167.5 31.848 167.83 32.1 L 167.83 32.1 L 167.83 32.1 Q 168.16 32.352 168.31 32.724 L 168.31 32.724 L 167.674 33.03 L 167.674 33.03 Q 167.542 32.778 167.389 32.652 L 167.389 32.652 L 167.389 32.652 Q 167.236 32.526 167.008 32.526 L 167.008 32.526 L 167.008 32.526 Q 166.684 32.526 166.468 32.766 L 166.468 32.766 L 166.468 32.766 Q 166.252 33.006 166.168 33.327 L 166.168 33.327 L 166.168 33.327 Q 166.084 33.648 166.084 34.014 L 166.084 34.014 L 166.084 34.014 Q 166.084 34.608 166.324 35.055 L 166.324 35.055 L 166.324 35.055 Q 166.564 35.502 167.008 35.502 L 167.008 35.502 L 167.008 35.502 Q 167.428 35.502 167.68 34.962 L 167.68 34.962 L 168.328 35.208 L 168.328 35.208 Q 167.932 36.18 167.008 36.18 Z  M 170.986 36.114 L 170.272 36.114 L 170.272 32.598 L 169.054 32.598 L 169.054 31.914 L 172.21 31.914 L 172.21 32.598 L 170.986 32.598 L 170.986 36.114 L 170.986 36.114 Z  M 174.328 36.186 L 174.328 36.186 L 174.328 36.186 Q 173.788 36.186 173.419 35.871 L 173.419 35.871 L 173.419 35.871 Q 173.05 35.556 172.894 35.082 L 172.894 35.082 L 172.894 35.082 Q 172.738 34.608 172.738 34.014 L 172.738 34.014 L 172.738 34.014 Q 172.738 33.42 172.894 32.946 L 172.894 32.946 L 172.894 32.946 Q 173.05 32.472 173.419 32.157 L 173.419 32.157 L 173.419 32.157 Q 173.788 31.842 174.328 31.842 L 174.328 31.842 L 174.328 31.842 Q 174.658 31.842 174.928 31.959 L 174.928 31.959 L 174.928 31.959 Q 175.198 32.076 175.381 32.28 L 175.381 32.28 L 175.381 32.28 Q 175.564 32.484 175.687 32.763 L 175.687 32.763 L 175.687 32.763 Q 175.81 33.042 175.867 33.354 L 175.867 33.354 L 175.867 33.354 Q 175.924 33.666 175.924 34.014 L 175.924 34.014 L 175.924 34.014 Q 175.924 34.362 175.867 34.674 L 175.867 34.674 L 175.867 34.674 Q 175.81 34.986 175.687 35.265 L 175.687 35.265 L 175.687 35.265 Q 175.564 35.544 175.381 35.748 L 175.381 35.748 L 175.381 35.748 Q 175.198 35.952 174.928 36.069 L 174.928 36.069 L 174.928 36.069 Q 174.658 36.186 174.328 36.186 Z  M 174.328 35.508 L 174.328 35.508 L 174.328 35.508 Q 174.61 35.508 174.808 35.286 L 174.808 35.286 L 174.808 35.286 Q 175.006 35.064 175.093 34.737 L 175.093 34.737 L 175.093 34.737 Q 175.18 34.41 175.18 34.014 L 175.18 34.014 L 175.18 34.014 Q 175.18 33.366 174.967 32.943 L 174.967 32.943 L 174.967 32.943 Q 174.754 32.52 174.328 32.52 L 174.328 32.52 L 174.328 32.52 Q 173.908 32.52 173.692 32.955 L 173.692 32.955 L 173.692 32.955 Q 173.476 33.39 173.476 34.014 L 173.476 34.014 L 173.476 34.014 Q 173.476 34.656 173.689 35.082 L 173.689 35.082 L 173.689 35.082 Q 173.902 35.508 174.328 35.508 Z  M 179.458 33.186 L 179.458 33.186 L 179.458 33.186 Q 179.458 33.594 179.239 33.924 L 179.239 33.924 L 179.239 33.924 Q 179.02 34.254 178.606 34.392 L 178.606 34.392 L 179.452 36.114 L 178.66 36.114 L 177.844 34.47 L 177.346 34.47 L 177.346 36.114 L 176.632 36.114 L 176.632 31.914 L 178.084 31.914 L 178.084 31.914 Q 178.456 31.914 178.732 32.019 L 178.732 32.019 L 178.732 32.019 Q 179.008 32.124 179.161 32.307 L 179.161 32.307 L 179.161 32.307 Q 179.314 32.49 179.386 32.709 L 179.386 32.709 L 179.386 32.709 Q 179.458 32.928 179.458 33.186 Z  M 178.096 32.586 L 177.346 32.586 L 177.346 33.798 L 178.096 33.798 L 178.096 33.798 Q 178.432 33.798 178.579 33.627 L 178.579 33.627 L 178.579 33.627 Q 178.726 33.456 178.726 33.192 L 178.726 33.192 L 178.726 33.192 Q 178.726 32.94 178.582 32.763 L 178.582 32.763 L 178.582 32.763 Q 178.438 32.586 178.096 32.586 L 178.096 32.586 L 178.096 32.586 Z  M 181.768 36.186 L 181.768 36.186 L 181.768 36.186 Q 181.258 36.186 180.85 35.892 L 180.85 35.892 L 180.85 35.892 Q 180.442 35.598 180.274 35.106 L 180.274 35.106 L 180.922 34.866 L 180.922 34.866 Q 181.06 35.16 181.303 35.337 L 181.303 35.337 L 181.303 35.337 Q 181.546 35.514 181.828 35.514 L 181.828 35.514 L 181.828 35.514 Q 182.104 35.514 182.272 35.37 L 182.272 35.37 L 182.272 35.37 Q 182.44 35.226 182.44 34.956 L 182.44 34.956 L 182.44 34.956 Q 182.44 34.728 182.212 34.551 L 182.212 34.551 L 182.212 34.551 Q 181.984 34.374 181.576 34.194 L 181.576 34.194 L 181.576 34.194 Q 181.318 34.08 181.162 33.996 L 181.162 33.996 L 181.162 33.996 Q 181.006 33.912 180.811 33.762 L 180.811 33.762 L 180.811 33.762 Q 180.616 33.612 180.52 33.408 L 180.52 33.408 L 180.52 33.408 Q 180.424 33.204 180.424 32.952 L 180.424 32.952 L 180.424 32.952 Q 180.424 32.484 180.781 32.163 L 180.781 32.163 L 180.781 32.163 Q 181.138 31.842 181.72 31.842 L 181.72 31.842 L 181.72 31.842 Q 182.182 31.842 182.527 32.094 L 182.527 32.094 L 182.527 32.094 Q 182.872 32.346 182.986 32.736 L 182.986 32.736 L 182.344 32.952 L 182.344 32.952 Q 182.128 32.514 181.678 32.514 L 181.678 32.514 L 181.678 32.514 Q 181.444 32.514 181.294 32.634 L 181.294 32.634 L 181.294 32.634 Q 181.144 32.754 181.144 32.964 L 181.144 32.964 L 181.144 32.964 Q 181.144 33.012 181.156 33.057 L 181.156 33.057 L 181.156 33.057 Q 181.168 33.102 181.198 33.141 L 181.198 33.141 L 181.198 33.141 Q 181.228 33.18 181.255 33.213 L 181.255 33.213 L 181.255 33.213 Q 181.282 33.246 181.339 33.285 L 181.339 33.285 L 181.339 33.285 Q 181.396 33.324 181.435 33.348 L 181.435 33.348 L 181.435 33.348 Q 181.474 33.372 181.552 33.411 L 181.552 33.411 L 181.552 33.411 Q 181.63 33.45 181.672 33.468 L 181.672 33.468 L 181.672 33.468 Q 181.714 33.486 181.81 33.531 L 181.81 33.531 L 181.81 33.531 Q 181.906 33.576 181.948 33.594 L 181.948 33.594 L 181.948 33.594 Q 182.2 33.708 182.368 33.807 L 182.368 33.807 L 182.368 33.807 Q 182.536 33.906 182.74 34.068 L 182.74 34.068 L 182.74 34.068 Q 182.944 34.23 183.052 34.452 L 183.052 34.452 L 183.052 34.452 Q 183.16 34.674 183.16 34.938 L 183.16 34.938 L 183.16 34.938 Q 183.16 35.514 182.755 35.85 L 182.755 35.85 L 182.755 35.85 Q 182.35 36.186 181.768 36.186 Z  M 129.298 36.114 L 128.584 36.114 L 128.584 31.914 L 131.416 31.914 L 131.416 32.592 L 129.298 32.592 L 129.298 33.606 L 130.84 33.606 L 130.84 34.284 L 129.298 34.284 L 129.298 36.114 L 129.298 36.114 Z  M 133.672 36.186 L 133.672 36.186 L 133.672 36.186 Q 133.132 36.186 132.763 35.871 L 132.763 35.871 L 132.763 35.871 Q 132.394 35.556 132.238 35.082 L 132.238 35.082 L 132.238 35.082 Q 132.082 34.608 132.082 34.014 L 132.082 34.014 L 132.082 34.014 Q 132.082 33.42 132.238 32.946 L 132.238 32.946 L 132.238 32.946 Q 132.394 32.472 132.763 32.157 L 132.763 32.157 L 132.763 32.157 Q 133.132 31.842 133.672 31.842 L 133.672 31.842 L 133.672 31.842 Q 134.002 31.842 134.272 31.959 L 134.272 31.959 L 134.272 31.959 Q 134.542 32.076 134.725 32.28 L 134.725 32.28 L 134.725 32.28 Q 134.908 32.484 135.031 32.763 L 135.031 32.763 L 135.031 32.763 Q 135.154 33.042 135.211 33.354 L 135.211 33.354 L 135.211 33.354 Q 135.268 33.666 135.268 34.014 L 135.268 34.014 L 135.268 34.014 Q 135.268 34.362 135.211 34.674 L 135.211 34.674 L 135.211 34.674 Q 135.154 34.986 135.031 35.265 L 135.031 35.265 L 135.031 35.265 Q 134.908 35.544 134.725 35.748 L 134.725 35.748 L 134.725 35.748 Q 134.542 35.952 134.272 36.069 L 134.272 36.069 L 134.272 36.069 Q 134.002 36.186 133.672 36.186 Z  M 133.672 35.508 L 133.672 35.508 L 133.672 35.508 Q 133.954 35.508 134.152 35.286 L 134.152 35.286 L 134.152 35.286 Q 134.35 35.064 134.437 34.737 L 134.437 34.737 L 134.437 34.737 Q 134.524 34.41 134.524 34.014 L 134.524 34.014 L 134.524 34.014 Q 134.524 33.366 134.311 32.943 L 134.311 32.943 L 134.311 32.943 Q 134.098 32.52 133.672 32.52 L 133.672 32.52 L 133.672 32.52 Q 133.252 32.52 133.036 32.955 L 133.036 32.955 L 133.036 32.955 Q 132.82 33.39 132.82 34.014 L 132.82 34.014 L 132.82 34.014 Q 132.82 34.656 133.033 35.082 L 133.033 35.082 L 133.033 35.082 Q 133.246 35.508 133.672 35.508 Z  M 138.802 33.186 L 138.802 33.186 L 138.802 33.186 Q 138.802 33.594 138.583 33.924 L 138.583 33.924 L 138.583 33.924 Q 138.364 34.254 137.95 34.392 L 137.95 34.392 L 138.796 36.114 L 138.004 36.114 L 137.188 34.47 L 136.69 34.47 L 136.69 36.114 L 135.976 36.114 L 135.976 31.914 L 137.428 31.914 L 137.428 31.914 Q 137.8 31.914 138.076 32.019 L 138.076 32.019 L 138.076 32.019 Q 138.352 32.124 138.505 32.307 L 138.505 32.307 L 138.505 32.307 Q 138.658 32.49 138.73 32.709 L 138.73 32.709 L 138.73 32.709 Q 138.802 32.928 138.802 33.186 Z  M 137.44 32.586 L 136.69 32.586 L 136.69 33.798 L 137.44 33.798 L 137.44 33.798 Q 137.776 33.798 137.923 33.627 L 137.923 33.627 L 137.923 33.627 Q 138.07 33.456 138.07 33.192 L 138.07 33.192 L 138.07 33.192 Q 138.07 32.94 137.926 32.763 L 137.926 32.763 L 137.926 32.763 Q 137.782 32.586 137.44 32.586 L 137.44 32.586 L 137.44 32.586 Z " fill="rgb(238,238,238)"/></g></svg>