<?xml version="1.0" encoding="UTF-8" standalone="no"?><!-- Generator: Gravit.io --><svg xmlns="http://www.w3.org/2000/svg" xmlns:xlink="http://www.w3.org/1999/xlink" style="isolation:isolate" viewBox="0 0 135 40" width="135pt" height="40pt"><defs><clipPath id="_clipPath_AzLKGQ0aMiK8sWE4beTtc4wS2OG96PWc"><rect width="135" height="40"/></clipPath></defs><g clip-path="url(#_clipPath_AzLKGQ0aMiK8sWE4beTtc4wS2OG96PWc)"><linearGradient id="_lgradient_6" x1="0.08807600066677457" y1="0.8567603562771323" x2="0.6163669579468654" y2="-0.04333892582733534" gradientTransform="matrix(31.461,0,0,39.921,0.019,0.024)" gradientUnits="userSpaceOnUse"><stop offset="0%" stop-opacity="1" style="stop-color:rgb(17,166,233)"/><stop offset="100%" stop-opacity="1" style="stop-color:rgb(233,243,99)"/></linearGradient><path d=" M 26.012 9.973 C 26.117 9.855 26.293 9.828 26.43 9.906 C 26.875 10.156 27.094 10.285 27.52 10.547 C 28.75 8.98 30.074 7.484 31.48 6.074 C 29.594 4.727 28.477 4.145 26.152 3.137 C 23.941 5.047 20.551 5.27 17.852 4.609 C 14.848 3.875 13.625 1.887 14.996 0.215 C 12.668 -0.027 11.547 -0.039 9.648 0.18 C 8.348 1.84 7.711 2.84 6.527 5.023 C 6.91 4.996 7.105 4.98 7.508 4.973 C 7.637 4.973 7.688 5.055 7.625 5.172 C 7.563 5.289 7.543 5.328 7.484 5.43 C 7.414 5.555 7.285 5.637 7.141 5.648 C 6.742 5.66 6.547 5.672 6.172 5.695 C 2.238 13.93 -0.141 22.426 0.027 31.598 C 1.453 32.691 2.922 33.727 4.414 34.723 C 4.723 31.336 5.414 27.996 6.469 24.766 C 5.949 23.023 5.699 22.184 5.18 20.586 C 5.039 20.043 5.23 19.465 5.672 19.117 C 6.113 18.785 6.625 18.918 6.781 19.414 C 7.074 20.316 7.215 20.793 7.5 21.758 C 8.402 19.293 9.441 16.879 10.621 14.535 C 10.898 13.977 11.547 13.633 12.082 13.789 C 12.613 13.949 12.801 14.512 12.508 15.078 C 11.734 16.539 11.359 17.293 10.652 18.813 C 11.66 18.273 12.188 18.004 13.277 17.5 C 13.859 17.23 14.469 17.461 14.621 18.012 C 14.773 18.563 14.414 19.227 13.836 19.488 C 12.285 20.172 10.781 20.953 9.336 21.832 C 8.68 23.422 8.375 24.227 7.836 25.832 C 8.668 25.293 9.109 25.008 10.043 24.477 C 10.543 24.191 11.09 24.426 11.25 25.016 C 11.391 25.609 11.137 26.223 10.621 26.547 C 9.328 27.238 8.082 28.016 6.898 28.879 C 6.156 31.582 5.879 32.934 5.605 35.508 C 7.988 37.047 10.43 38.5 12.875 39.945 C 15.035 29.152 20.375 19.863 26.992 11.195 C 26.563 10.938 26.344 10.813 25.898 10.566 C 25.836 10.539 25.785 10.48 25.77 10.414 C 25.75 10.348 25.766 10.273 25.809 10.219 C 25.891 10.117 25.934 10.07 26.012 9.973 Z  M 10.34 5.273 C 10.281 5.375 10.25 5.43 10.191 5.535 C 10.105 5.66 9.961 5.734 9.809 5.73 C 9.066 5.676 8.703 5.656 8.008 5.648 C 7.875 5.648 7.828 5.555 7.887 5.434 L 8.027 5.18 C 8.105 5.051 8.242 4.973 8.387 4.969 C 9.094 4.969 9.461 4.984 10.211 5.039 C 10.352 5.047 10.41 5.156 10.34 5.273 Z  M 13.285 5.648 C 13.219 5.75 13.184 5.805 13.117 5.906 C 13.027 6.039 12.871 6.105 12.715 6.09 C 11.918 5.957 11.527 5.906 10.766 5.828 C 10.707 5.828 10.648 5.797 10.621 5.746 C 10.594 5.691 10.598 5.629 10.633 5.582 C 10.695 5.477 10.727 5.426 10.789 5.324 C 10.879 5.199 11.023 5.129 11.176 5.141 C 11.949 5.219 12.344 5.277 13.145 5.402 C 13.297 5.406 13.359 5.527 13.285 5.648 Z  M 16.363 6.289 C 16.293 6.391 16.258 6.441 16.184 6.551 C 16.082 6.676 15.914 6.734 15.758 6.699 C 14.938 6.5 14.531 6.414 13.723 6.258 C 13.57 6.23 13.512 6.109 13.59 5.992 C 13.664 5.871 13.688 5.832 13.754 5.73 C 13.852 5.602 14.012 5.539 14.168 5.566 C 14.984 5.719 15.395 5.809 16.227 6.004 C 16.379 6.043 16.445 6.168 16.363 6.289 Z  M 19.496 7.188 L 19.316 7.445 C 19.211 7.57 19.039 7.621 18.883 7.57 C 18.055 7.305 17.641 7.184 16.816 6.965 C 16.66 6.922 16.602 6.793 16.684 6.676 C 16.766 6.555 16.789 6.516 16.863 6.414 C 16.969 6.285 17.137 6.23 17.297 6.277 C 18.129 6.496 18.547 6.621 19.379 6.887 C 19.527 6.938 19.586 7.07 19.496 7.188 Z  M 22.594 8.34 C 22.516 8.441 22.477 8.492 22.398 8.594 C 22.285 8.715 22.113 8.754 21.961 8.691 C 21.152 8.363 20.742 8.211 19.922 7.922 C 19.766 7.867 19.711 7.73 19.797 7.609 C 19.883 7.492 19.91 7.457 19.977 7.355 C 20.086 7.23 20.258 7.184 20.414 7.238 C 21.242 7.531 21.656 7.684 22.469 8.02 C 22.539 8.031 22.594 8.082 22.621 8.145 C 22.645 8.211 22.633 8.285 22.594 8.34 Z  M 25.559 9.73 C 25.48 9.828 25.441 9.879 25.359 9.977 C 25.25 10.094 25.078 10.125 24.934 10.051 C 24.168 9.66 23.773 9.473 22.98 9.121 C 22.91 9.102 22.855 9.055 22.836 8.988 C 22.813 8.922 22.824 8.848 22.867 8.793 C 22.945 8.688 22.984 8.641 23.063 8.539 C 23.176 8.418 23.352 8.383 23.5 8.449 C 24.297 8.813 24.691 8.992 25.461 9.391 C 25.527 9.414 25.574 9.469 25.594 9.535 C 25.613 9.602 25.602 9.676 25.559 9.73 Z " fill="url(#_lgradient_6)"/><path d=" M 26.145 32.375 L 26.145 22.18 C 26.129 21.504 26.395 20.852 26.879 20.379 C 27.352 19.887 28.008 19.613 28.691 19.621 L 33.781 19.621 C 34.461 19.609 35.109 19.887 35.574 20.379 C 36.063 20.848 36.34 21.5 36.328 22.18 L 36.328 27.277 C 36.344 27.961 36.07 28.617 35.574 29.09 C 35.102 29.57 34.453 29.836 33.781 29.828 L 28.691 29.828 L 28.691 32.375 L 26.145 32.375 Z  M 33.781 27.277 L 33.781 22.18 L 28.691 22.18 L 28.691 27.277 L 33.781 27.277 Z " fill="rgb(13,52,73)"/><path d=" M 39.512 29.828 C 38.832 29.844 38.176 29.574 37.699 29.09 C 37.223 28.609 36.957 27.957 36.965 27.277 L 36.965 22.18 C 36.949 21.504 37.219 20.852 37.699 20.379 C 38.176 19.887 38.828 19.613 39.512 19.621 L 47.16 19.621 L 47.16 29.816 L 39.512 29.828 Z  M 44.605 27.277 L 44.605 22.18 L 39.512 22.18 L 39.512 27.277 L 44.605 27.277 Z " fill="rgb(13,52,73)"/><path d=" M 47.789 29.828 L 47.789 27.277 L 55.426 27.277 L 55.426 26.004 L 50.332 26.004 C 49.656 26.02 49 25.754 48.523 25.266 C 48.043 24.789 47.777 24.133 47.789 23.453 L 47.789 22.18 C 47.777 21.504 48.043 20.852 48.523 20.379 C 48.992 19.883 49.652 19.609 50.332 19.621 L 57.973 19.621 L 57.973 22.172 L 50.332 22.172 L 50.332 23.445 L 55.426 23.445 C 56.102 23.434 56.754 23.707 57.215 24.203 C 57.707 24.672 57.98 25.324 57.973 26.004 L 57.973 27.277 C 57.98 27.961 57.707 28.617 57.215 29.09 C 56.746 29.574 56.098 29.84 55.426 29.828 L 47.789 29.828 Z " fill="rgb(13,52,73)"/><path d=" M 58.609 29.828 L 58.609 27.277 L 66.25 27.277 L 66.25 26.004 L 61.156 26.004 C 60.477 26.02 59.82 25.754 59.348 25.266 C 58.863 24.789 58.598 24.133 58.609 23.453 L 58.609 22.18 C 58.602 21.504 58.867 20.852 59.348 20.379 C 59.816 19.883 60.473 19.609 61.156 19.621 L 68.793 19.621 L 68.793 22.172 L 61.156 22.172 L 61.156 23.445 L 66.25 23.445 C 66.926 23.434 67.574 23.707 68.039 24.203 C 68.527 24.672 68.801 25.324 68.793 26.004 L 68.793 27.277 C 68.805 27.961 68.531 28.617 68.039 29.09 C 67.57 29.574 66.922 29.84 66.25 29.828 L 58.609 29.828 Z " fill="rgb(13,52,73)"/><path d=" M 71.977 29.828 C 71.301 29.844 70.645 29.574 70.168 29.09 C 69.688 28.609 69.422 27.957 69.43 27.277 L 69.43 17.082 L 71.977 17.082 L 71.977 19.629 L 74.52 19.629 L 74.52 22.18 L 71.977 22.18 L 71.977 27.277 L 74.52 27.277 L 74.52 29.828 L 71.977 29.828 Z " fill="rgb(13,52,73)"/><path d=" M 75.16 29.828 L 75.16 22.18 C 75.145 21.504 75.414 20.852 75.898 20.379 C 76.371 19.887 77.027 19.613 77.707 19.621 L 82.801 19.621 L 82.801 22.172 L 77.707 22.172 L 77.707 29.816 L 75.16 29.828 Z " fill="rgb(13,52,73)"/><path d=" M 85.98 29.828 C 85.305 29.844 84.648 29.574 84.172 29.09 C 83.691 28.609 83.426 27.957 83.438 27.277 L 83.438 22.18 C 83.422 21.504 83.688 20.852 84.172 20.379 C 84.645 19.887 85.301 19.613 85.98 19.621 L 91.078 19.621 C 91.758 19.609 92.406 19.887 92.871 20.379 C 93.363 20.848 93.637 21.5 93.629 22.18 L 93.629 26.004 L 85.98 26.004 L 85.98 27.277 L 93.621 27.277 L 93.621 29.828 L 85.98 29.828 Z  M 91.078 23.453 L 91.078 22.18 L 85.98 22.18 L 85.98 23.453 L 91.078 23.453 Z " fill="rgb(13,52,73)"/><path d=" M 96.805 29.828 C 96.129 29.84 95.477 29.574 95.004 29.09 C 94.523 28.609 94.258 27.957 94.27 27.277 L 94.27 22.18 C 94.254 21.504 94.52 20.852 95.004 20.379 C 95.473 19.891 96.125 19.617 96.805 19.621 L 101.898 19.621 C 102.574 19.609 103.223 19.887 103.688 20.379 C 104.18 20.848 104.453 21.5 104.441 22.18 L 104.441 26.004 L 96.805 26.004 L 96.805 27.277 L 104.441 27.277 L 104.441 29.828 L 96.805 29.828 Z  M 101.898 23.453 L 101.898 22.18 L 96.805 22.18 L 96.805 23.453 L 101.898 23.453 Z " fill="rgb(13,52,73)"/><linearGradient id="_lgradient_7" x1="-0.00005451573266901377" y1="0.49989250672355623" x2="1.0000000000000004" y2="0.49989250672355623" gradientTransform="matrix(29.918,0,0,12.747,105.082,17.082)" gradientUnits="userSpaceOnUse"><stop offset="0%" stop-opacity="1" style="stop-color:rgb(17,166,233)"/><stop offset="100%" stop-opacity="1" style="stop-color:rgb(233,243,99)"/></linearGradient><path d=" M 105.082 29.828 L 105.082 27.277 L 107.629 27.277 L 107.629 29.828 L 105.082 29.828 Z  M 108.262 29.828 L 108.262 22.18 C 108.254 21.504 108.52 20.855 109 20.379 C 109.469 19.883 110.125 19.609 110.809 19.621 L 115.902 19.621 C 116.582 19.613 117.234 19.887 117.703 20.379 C 118.195 20.844 118.473 21.5 118.457 22.18 L 118.457 29.828 L 115.902 29.828 L 115.902 22.18 L 110.809 22.18 L 110.809 29.828 L 108.262 29.828 Z  M 121.633 29.828 C 120.953 29.844 120.297 29.574 119.82 29.09 C 119.34 28.609 119.074 27.957 119.086 27.277 L 119.086 22.18 C 119.07 21.504 119.336 20.852 119.82 20.379 C 120.293 19.887 120.949 19.613 121.633 19.621 L 126.719 19.621 C 127.398 19.609 128.055 19.883 128.52 20.379 C 129.012 20.848 129.285 21.5 129.277 22.18 L 129.277 26.004 L 121.633 26.004 L 121.633 27.277 L 129.27 27.277 L 129.27 29.828 L 121.633 29.828 Z  M 126.719 23.453 L 126.719 22.18 L 121.633 22.18 L 121.633 23.453 L 126.719 23.453 Z  M 132.449 29.828 C 131.773 29.84 131.117 29.574 130.645 29.09 C 130.164 28.609 129.898 27.957 129.906 27.277 L 129.906 17.082 L 132.453 17.082 L 132.453 19.629 L 135 19.629 L 135 22.18 L 132.453 22.18 L 132.453 27.277 L 135 27.277 L 135 29.828 L 132.449 29.828 Z " fill="url(#_lgradient_7)"/><path d=" M 96.848 33.041 L 96.848 33.671 L 95.966 33.671 L 95.966 36.611 L 96.848 36.611 L 96.848 37.241 L 94.376 37.241 L 94.376 36.611 L 95.252 36.611 L 95.252 33.671 L 94.376 33.671 L 94.376 33.041 L 96.848 33.041 L 96.848 33.041 Z  M 98.582 37.241 L 97.916 37.241 L 97.916 33.041 L 98.594 33.041 L 99.902 35.633 L 99.902 35.633 Q 100.01 35.819 100.052 35.921 L 100.052 35.921 L 100.052 35.921 Q 100.04 35.693 100.04 35.633 L 100.04 35.633 L 100.04 33.041 L 100.7 33.041 L 100.7 37.241 L 100.052 37.241 L 98.72 34.637 L 98.72 34.637 Q 98.612 34.451 98.564 34.349 L 98.564 34.349 L 98.564 34.349 Q 98.582 34.439 98.582 34.637 L 98.582 34.637 L 98.582 37.241 L 98.582 37.241 Z  M 103.052 37.313 L 103.052 37.313 L 103.052 37.313 Q 102.542 37.313 102.134 37.019 L 102.134 37.019 L 102.134 37.019 Q 101.726 36.725 101.558 36.233 L 101.558 36.233 L 102.206 35.993 L 102.206 35.993 Q 102.344 36.287 102.587 36.464 L 102.587 36.464 L 102.587 36.464 Q 102.83 36.641 103.112 36.641 L 103.112 36.641 L 103.112 36.641 Q 103.388 36.641 103.556 36.497 L 103.556 36.497 L 103.556 36.497 Q 103.724 36.353 103.724 36.083 L 103.724 36.083 L 103.724 36.083 Q 103.724 35.855 103.496 35.678 L 103.496 35.678 L 103.496 35.678 Q 103.268 35.501 102.86 35.321 L 102.86 35.321 L 102.86 35.321 Q 102.602 35.207 102.446 35.123 L 102.446 35.123 L 102.446 35.123 Q 102.29 35.039 102.095 34.889 L 102.095 34.889 L 102.095 34.889 Q 101.9 34.739 101.804 34.535 L 101.804 34.535 L 101.804 34.535 Q 101.708 34.331 101.708 34.079 L 101.708 34.079 L 101.708 34.079 Q 101.708 33.611 102.065 33.29 L 102.065 33.29 L 102.065 33.29 Q 102.422 32.969 103.004 32.969 L 103.004 32.969 L 103.004 32.969 Q 103.466 32.969 103.811 33.221 L 103.811 33.221 L 103.811 33.221 Q 104.156 33.473 104.27 33.863 L 104.27 33.863 L 103.628 34.079 L 103.628 34.079 Q 103.412 33.641 102.962 33.641 L 102.962 33.641 L 102.962 33.641 Q 102.728 33.641 102.578 33.761 L 102.578 33.761 L 102.578 33.761 Q 102.428 33.881 102.428 34.091 L 102.428 34.091 L 102.428 34.091 Q 102.428 34.139 102.44 34.184 L 102.44 34.184 L 102.44 34.184 Q 102.452 34.229 102.482 34.268 L 102.482 34.268 L 102.482 34.268 Q 102.512 34.307 102.539 34.34 L 102.539 34.34 L 102.539 34.34 Q 102.566 34.373 102.623 34.412 L 102.623 34.412 L 102.623 34.412 Q 102.68 34.451 102.719 34.475 L 102.719 34.475 L 102.719 34.475 Q 102.758 34.499 102.836 34.538 L 102.836 34.538 L 102.836 34.538 Q 102.914 34.577 102.956 34.595 L 102.956 34.595 L 102.956 34.595 Q 102.998 34.613 103.094 34.658 L 103.094 34.658 L 103.094 34.658 Q 103.19 34.703 103.232 34.721 L 103.232 34.721 L 103.232 34.721 Q 103.484 34.835 103.652 34.934 L 103.652 34.934 L 103.652 34.934 Q 103.82 35.033 104.024 35.195 L 104.024 35.195 L 104.024 35.195 Q 104.228 35.357 104.336 35.579 L 104.336 35.579 L 104.336 35.579 Q 104.444 35.801 104.444 36.065 L 104.444 36.065 L 104.444 36.065 Q 104.444 36.641 104.039 36.977 L 104.039 36.977 L 104.039 36.977 Q 103.634 37.313 103.052 37.313 Z  M 107.054 37.241 L 106.34 37.241 L 106.34 33.725 L 105.122 33.725 L 105.122 33.041 L 108.278 33.041 L 108.278 33.725 L 107.054 33.725 L 107.054 37.241 L 107.054 37.241 Z  M 111.83 34.313 L 111.83 34.313 L 111.83 34.313 Q 111.83 34.721 111.611 35.051 L 111.611 35.051 L 111.611 35.051 Q 111.392 35.381 110.978 35.519 L 110.978 35.519 L 111.824 37.241 L 111.032 37.241 L 110.216 35.597 L 109.718 35.597 L 109.718 37.241 L 109.004 37.241 L 109.004 33.041 L 110.456 33.041 L 110.456 33.041 Q 110.828 33.041 111.104 33.146 L 111.104 33.146 L 111.104 33.146 Q 111.38 33.251 111.533 33.434 L 111.533 33.434 L 111.533 33.434 Q 111.686 33.617 111.758 33.836 L 111.758 33.836 L 111.758 33.836 Q 111.83 34.055 111.83 34.313 Z  M 110.468 33.713 L 109.718 33.713 L 109.718 34.925 L 110.468 34.925 L 110.468 34.925 Q 110.804 34.925 110.951 34.754 L 110.951 34.754 L 110.951 34.754 Q 111.098 34.583 111.098 34.319 L 111.098 34.319 L 111.098 34.319 Q 111.098 34.067 110.954 33.89 L 110.954 33.89 L 110.954 33.89 Q 110.81 33.713 110.468 33.713 L 110.468 33.713 L 110.468 33.713 Z  M 114.092 37.313 L 114.092 37.313 L 114.092 37.313 Q 113.468 37.313 113.072 36.914 L 113.072 36.914 L 113.072 36.914 Q 112.676 36.515 112.676 35.639 L 112.676 35.639 L 112.676 33.041 L 113.384 33.041 L 113.384 35.639 L 113.384 35.639 Q 113.384 36.185 113.57 36.41 L 113.57 36.41 L 113.57 36.41 Q 113.756 36.635 114.092 36.635 L 114.092 36.635 L 114.092 36.635 Q 114.8 36.635 114.8 35.639 L 114.8 35.639 L 114.8 33.041 L 115.514 33.041 L 115.514 35.639 L 115.514 35.639 Q 115.514 36.503 115.118 36.908 L 115.118 36.908 L 115.118 36.908 Q 114.722 37.313 114.092 37.313 Z  M 117.86 37.307 L 117.86 37.307 L 117.86 37.307 Q 117.506 37.307 117.221 37.181 L 117.221 37.181 L 117.221 37.181 Q 116.936 37.055 116.747 36.848 L 116.747 36.848 L 116.747 36.848 Q 116.558 36.641 116.432 36.356 L 116.432 36.356 L 116.432 36.356 Q 116.306 36.071 116.252 35.768 L 116.252 35.768 L 116.252 35.768 Q 116.198 35.465 116.198 35.141 L 116.198 35.141 L 116.198 35.141 Q 116.198 34.745 116.291 34.376 L 116.291 34.376 L 116.291 34.376 Q 116.384 34.007 116.576 33.686 L 116.576 33.686 L 116.576 33.686 Q 116.768 33.365 117.098 33.17 L 117.098 33.17 L 117.098 33.17 Q 117.428 32.975 117.86 32.975 L 117.86 32.975 L 117.86 32.975 Q 118.352 32.975 118.682 33.227 L 118.682 33.227 L 118.682 33.227 Q 119.012 33.479 119.162 33.851 L 119.162 33.851 L 118.526 34.157 L 118.526 34.157 Q 118.394 33.905 118.241 33.779 L 118.241 33.779 L 118.241 33.779 Q 118.088 33.653 117.86 33.653 L 117.86 33.653 L 117.86 33.653 Q 117.536 33.653 117.32 33.893 L 117.32 33.893 L 117.32 33.893 Q 117.104 34.133 117.02 34.454 L 117.02 34.454 L 117.02 34.454 Q 116.936 34.775 116.936 35.141 L 116.936 35.141 L 116.936 35.141 Q 116.936 35.735 117.176 36.182 L 117.176 36.182 L 117.176 36.182 Q 117.416 36.629 117.86 36.629 L 117.86 36.629 L 117.86 36.629 Q 118.28 36.629 118.532 36.089 L 118.532 36.089 L 119.18 36.335 L 119.18 36.335 Q 118.784 37.307 117.86 37.307 Z  M 121.838 37.241 L 121.124 37.241 L 121.124 33.725 L 119.906 33.725 L 119.906 33.041 L 123.062 33.041 L 123.062 33.725 L 121.838 33.725 L 121.838 37.241 L 121.838 37.241 Z  M 125.18 37.313 L 125.18 37.313 L 125.18 37.313 Q 124.64 37.313 124.271 36.998 L 124.271 36.998 L 124.271 36.998 Q 123.902 36.683 123.746 36.209 L 123.746 36.209 L 123.746 36.209 Q 123.59 35.735 123.59 35.141 L 123.59 35.141 L 123.59 35.141 Q 123.59 34.547 123.746 34.073 L 123.746 34.073 L 123.746 34.073 Q 123.902 33.599 124.271 33.284 L 124.271 33.284 L 124.271 33.284 Q 124.64 32.969 125.18 32.969 L 125.18 32.969 L 125.18 32.969 Q 125.51 32.969 125.78 33.086 L 125.78 33.086 L 125.78 33.086 Q 126.05 33.203 126.233 33.407 L 126.233 33.407 L 126.233 33.407 Q 126.416 33.611 126.539 33.89 L 126.539 33.89 L 126.539 33.89 Q 126.662 34.169 126.719 34.481 L 126.719 34.481 L 126.719 34.481 Q 126.776 34.793 126.776 35.141 L 126.776 35.141 L 126.776 35.141 Q 126.776 35.489 126.719 35.801 L 126.719 35.801 L 126.719 35.801 Q 126.662 36.113 126.539 36.392 L 126.539 36.392 L 126.539 36.392 Q 126.416 36.671 126.233 36.875 L 126.233 36.875 L 126.233 36.875 Q 126.05 37.079 125.78 37.196 L 125.78 37.196 L 125.78 37.196 Q 125.51 37.313 125.18 37.313 Z  M 125.18 36.635 L 125.18 36.635 L 125.18 36.635 Q 125.462 36.635 125.66 36.413 L 125.66 36.413 L 125.66 36.413 Q 125.858 36.191 125.945 35.864 L 125.945 35.864 L 125.945 35.864 Q 126.032 35.537 126.032 35.141 L 126.032 35.141 L 126.032 35.141 Q 126.032 34.493 125.819 34.07 L 125.819 34.07 L 125.819 34.07 Q 125.606 33.647 125.18 33.647 L 125.18 33.647 L 125.18 33.647 Q 124.76 33.647 124.544 34.082 L 124.544 34.082 L 124.544 34.082 Q 124.328 34.517 124.328 35.141 L 124.328 35.141 L 124.328 35.141 Q 124.328 35.783 124.541 36.209 L 124.541 36.209 L 124.541 36.209 Q 124.754 36.635 125.18 36.635 Z  M 130.31 34.313 L 130.31 34.313 L 130.31 34.313 Q 130.31 34.721 130.091 35.051 L 130.091 35.051 L 130.091 35.051 Q 129.872 35.381 129.458 35.519 L 129.458 35.519 L 130.304 37.241 L 129.512 37.241 L 128.696 35.597 L 128.198 35.597 L 128.198 37.241 L 127.484 37.241 L 127.484 33.041 L 128.936 33.041 L 128.936 33.041 Q 129.308 33.041 129.584 33.146 L 129.584 33.146 L 129.584 33.146 Q 129.86 33.251 130.013 33.434 L 130.013 33.434 L 130.013 33.434 Q 130.166 33.617 130.238 33.836 L 130.238 33.836 L 130.238 33.836 Q 130.31 34.055 130.31 34.313 Z  M 128.948 33.713 L 128.198 33.713 L 128.198 34.925 L 128.948 34.925 L 128.948 34.925 Q 129.284 34.925 129.431 34.754 L 129.431 34.754 L 129.431 34.754 Q 129.578 34.583 129.578 34.319 L 129.578 34.319 L 129.578 34.319 Q 129.578 34.067 129.434 33.89 L 129.434 33.89 L 129.434 33.89 Q 129.29 33.713 128.948 33.713 L 128.948 33.713 L 128.948 33.713 Z  M 132.62 37.313 L 132.62 37.313 L 132.62 37.313 Q 132.11 37.313 131.702 37.019 L 131.702 37.019 L 131.702 37.019 Q 131.294 36.725 131.126 36.233 L 131.126 36.233 L 131.774 35.993 L 131.774 35.993 Q 131.912 36.287 132.155 36.464 L 132.155 36.464 L 132.155 36.464 Q 132.398 36.641 132.68 36.641 L 132.68 36.641 L 132.68 36.641 Q 132.956 36.641 133.124 36.497 L 133.124 36.497 L 133.124 36.497 Q 133.292 36.353 133.292 36.083 L 133.292 36.083 L 133.292 36.083 Q 133.292 35.855 133.064 35.678 L 133.064 35.678 L 133.064 35.678 Q 132.836 35.501 132.428 35.321 L 132.428 35.321 L 132.428 35.321 Q 132.17 35.207 132.014 35.123 L 132.014 35.123 L 132.014 35.123 Q 131.858 35.039 131.663 34.889 L 131.663 34.889 L 131.663 34.889 Q 131.468 34.739 131.372 34.535 L 131.372 34.535 L 131.372 34.535 Q 131.276 34.331 131.276 34.079 L 131.276 34.079 L 131.276 34.079 Q 131.276 33.611 131.633 33.29 L 131.633 33.29 L 131.633 33.29 Q 131.99 32.969 132.572 32.969 L 132.572 32.969 L 132.572 32.969 Q 133.034 32.969 133.379 33.221 L 133.379 33.221 L 133.379 33.221 Q 133.724 33.473 133.838 33.863 L 133.838 33.863 L 133.196 34.079 L 133.196 34.079 Q 132.98 33.641 132.53 33.641 L 132.53 33.641 L 132.53 33.641 Q 132.296 33.641 132.146 33.761 L 132.146 33.761 L 132.146 33.761 Q 131.996 33.881 131.996 34.091 L 131.996 34.091 L 131.996 34.091 Q 131.996 34.139 132.008 34.184 L 132.008 34.184 L 132.008 34.184 Q 132.02 34.229 132.05 34.268 L 132.05 34.268 L 132.05 34.268 Q 132.08 34.307 132.107 34.34 L 132.107 34.34 L 132.107 34.34 Q 132.134 34.373 132.191 34.412 L 132.191 34.412 L 132.191 34.412 Q 132.248 34.451 132.287 34.475 L 132.287 34.475 L 132.287 34.475 Q 132.326 34.499 132.404 34.538 L 132.404 34.538 L 132.404 34.538 Q 132.482 34.577 132.524 34.595 L 132.524 34.595 L 132.524 34.595 Q 132.566 34.613 132.662 34.658 L 132.662 34.658 L 132.662 34.658 Q 132.758 34.703 132.8 34.721 L 132.8 34.721 L 132.8 34.721 Q 133.052 34.835 133.22 34.934 L 133.22 34.934 L 133.22 34.934 Q 133.388 35.033 133.592 35.195 L 133.592 35.195 L 133.592 35.195 Q 133.796 35.357 133.904 35.579 L 133.904 35.579 L 133.904 35.579 Q 134.012 35.801 134.012 36.065 L 134.012 36.065 L 134.012 36.065 Q 134.012 36.641 133.607 36.977 L 133.607 36.977 L 133.607 36.977 Q 133.202 37.313 132.62 37.313 Z  M 80.15 37.241 L 79.436 37.241 L 79.436 33.041 L 82.268 33.041 L 82.268 33.719 L 80.15 33.719 L 80.15 34.733 L 81.692 34.733 L 81.692 35.411 L 80.15 35.411 L 80.15 37.241 L 80.15 37.241 Z  M 84.524 37.313 L 84.524 37.313 L 84.524 37.313 Q 83.984 37.313 83.615 36.998 L 83.615 36.998 L 83.615 36.998 Q 83.246 36.683 83.09 36.209 L 83.09 36.209 L 83.09 36.209 Q 82.934 35.735 82.934 35.141 L 82.934 35.141 L 82.934 35.141 Q 82.934 34.547 83.09 34.073 L 83.09 34.073 L 83.09 34.073 Q 83.246 33.599 83.615 33.284 L 83.615 33.284 L 83.615 33.284 Q 83.984 32.969 84.524 32.969 L 84.524 32.969 L 84.524 32.969 Q 84.854 32.969 85.124 33.086 L 85.124 33.086 L 85.124 33.086 Q 85.394 33.203 85.577 33.407 L 85.577 33.407 L 85.577 33.407 Q 85.76 33.611 85.883 33.89 L 85.883 33.89 L 85.883 33.89 Q 86.006 34.169 86.063 34.481 L 86.063 34.481 L 86.063 34.481 Q 86.12 34.793 86.12 35.141 L 86.12 35.141 L 86.12 35.141 Q 86.12 35.489 86.063 35.801 L 86.063 35.801 L 86.063 35.801 Q 86.006 36.113 85.883 36.392 L 85.883 36.392 L 85.883 36.392 Q 85.76 36.671 85.577 36.875 L 85.577 36.875 L 85.577 36.875 Q 85.394 37.079 85.124 37.196 L 85.124 37.196 L 85.124 37.196 Q 84.854 37.313 84.524 37.313 Z  M 84.524 36.635 L 84.524 36.635 L 84.524 36.635 Q 84.806 36.635 85.004 36.413 L 85.004 36.413 L 85.004 36.413 Q 85.202 36.191 85.289 35.864 L 85.289 35.864 L 85.289 35.864 Q 85.376 35.537 85.376 35.141 L 85.376 35.141 L 85.376 35.141 Q 85.376 34.493 85.163 34.07 L 85.163 34.07 L 85.163 34.07 Q 84.95 33.647 84.524 33.647 L 84.524 33.647 L 84.524 33.647 Q 84.104 33.647 83.888 34.082 L 83.888 34.082 L 83.888 34.082 Q 83.672 34.517 83.672 35.141 L 83.672 35.141 L 83.672 35.141 Q 83.672 35.783 83.885 36.209 L 83.885 36.209 L 83.885 36.209 Q 84.098 36.635 84.524 36.635 Z  M 89.654 34.313 L 89.654 34.313 L 89.654 34.313 Q 89.654 34.721 89.435 35.051 L 89.435 35.051 L 89.435 35.051 Q 89.216 35.381 88.802 35.519 L 88.802 35.519 L 89.648 37.241 L 88.856 37.241 L 88.04 35.597 L 87.542 35.597 L 87.542 37.241 L 86.828 37.241 L 86.828 33.041 L 88.28 33.041 L 88.28 33.041 Q 88.652 33.041 88.928 33.146 L 88.928 33.146 L 88.928 33.146 Q 89.204 33.251 89.357 33.434 L 89.357 33.434 L 89.357 33.434 Q 89.51 33.617 89.582 33.836 L 89.582 33.836 L 89.582 33.836 Q 89.654 34.055 89.654 34.313 Z  M 88.292 33.713 L 87.542 33.713 L 87.542 34.925 L 88.292 34.925 L 88.292 34.925 Q 88.628 34.925 88.775 34.754 L 88.775 34.754 L 88.775 34.754 Q 88.922 34.583 88.922 34.319 L 88.922 34.319 L 88.922 34.319 Q 88.922 34.067 88.778 33.89 L 88.778 33.89 L 88.778 33.89 Q 88.634 33.713 88.292 33.713 L 88.292 33.713 L 88.292 33.713 Z " fill="rgb(13,52,73)"/></g></svg>