<?xml version="1.0" encoding="UTF-8" standalone="no"?><!-- Generator: Gravit.io --><svg xmlns="http://www.w3.org/2000/svg" xmlns:xlink="http://www.w3.org/1999/xlink" style="isolation:isolate" viewBox="0 0 750 222" width="750pt" height="222pt"><defs><clipPath id="_clipPath_8dvFeflPoyugs4lfzaX5r9fT6JgEJaEK"><rect width="750" height="222"/></clipPath></defs><g clip-path="url(#_clipPath_8dvFeflPoyugs4lfzaX5r9fT6JgEJaEK)"><linearGradient id="_lgradient_2" x1="0.08807600066677457" y1="0.8567603562771323" x2="0.6163669579468654" y2="-0.04333892582733534" gradientTransform="matrix(174.769,0,0,221.764,0.019,0.024)" gradientUnits="userSpaceOnUse"><stop offset="0%" stop-opacity="1" style="stop-color:rgb(17,166,233)"/><stop offset="100%" stop-opacity="1" style="stop-color:rgb(233,243,99)"/></linearGradient><path d=" M 144.409 55.289 C 144.995 54.638 145.971 54.486 146.731 54.92 C 149.205 56.309 150.42 57.025 152.785 58.479 C 159.62 49.778 166.976 41.467 174.788 33.633 C 164.307 26.147 158.101 22.914 145.19 17.315 C 132.908 27.926 114.073 29.163 99.079 25.496 C 82.392 21.417 75.601 10.372 83.217 1.084 C 70.284 -0.261 64.057 -0.326 53.511 0.889 C 46.285 10.111 42.748 15.666 36.173 27.796 C 38.3 27.644 39.384 27.557 41.62 27.514 C 42.336 27.514 42.618 27.97 42.27 28.621 C 41.923 29.272 41.815 29.489 41.489 30.053 C 41.099 30.747 40.383 31.203 39.58 31.268 C 37.366 31.333 36.281 31.398 34.198 31.528 C 12.347 77.271 -0.868 124.467 0.065 175.416 C 7.986 181.492 16.145 187.243 24.434 192.776 C 26.148 173.963 29.989 155.41 35.847 137.464 C 32.961 127.787 31.573 123.121 28.687 114.246 C 27.906 111.23 28.969 108.018 31.421 106.087 C 33.873 104.243 36.715 104.981 37.583 107.736 C 39.211 112.749 39.992 115.396 41.576 120.756 C 46.589 107.064 52.361 93.654 58.914 80.634 C 60.455 77.531 64.057 75.621 67.029 76.489 C 69.98 77.379 71.022 80.504 69.395 83.65 C 65.098 91.766 63.015 95.954 59.087 104.395 C 64.686 101.4 67.615 99.903 73.669 97.104 C 76.903 95.606 80.288 96.887 81.134 99.946 C 81.98 103.006 79.984 106.695 76.772 108.149 C 68.158 111.946 59.804 116.286 51.775 121.168 C 48.129 130 46.437 134.47 43.442 143.388 C 48.064 140.394 50.516 138.81 55.702 135.859 C 58.48 134.275 61.518 135.577 62.407 138.853 C 63.189 142.151 61.778 145.558 58.914 147.359 C 51.731 151.2 44.809 155.518 38.234 160.314 C 34.112 175.33 32.571 182.838 31.052 197.137 C 44.289 205.687 57.851 213.759 71.434 221.788 C 83.434 161.833 113.097 110.232 149.856 62.081 C 147.469 60.649 146.254 59.954 143.78 58.587 C 143.433 58.436 143.151 58.11 143.064 57.741 C 142.955 57.372 143.042 56.96 143.281 56.656 C 143.736 56.092 143.975 55.832 144.409 55.289 Z  M 57.352 29.185 C 57.026 29.749 56.852 30.053 56.527 30.639 C 56.05 31.333 55.247 31.745 54.4 31.724 C 50.278 31.42 48.259 31.311 44.397 31.268 C 43.659 31.268 43.399 30.747 43.724 30.075 L 44.506 28.664 C 44.94 27.948 45.699 27.514 46.502 27.492 C 50.429 27.492 52.469 27.579 56.635 27.883 C 57.417 27.926 57.742 28.534 57.352 29.185 Z  M 73.713 31.268 C 73.344 31.832 73.149 32.136 72.78 32.7 C 72.281 33.438 71.413 33.807 70.545 33.72 C 66.118 32.982 63.948 32.7 59.717 32.266 C 59.391 32.266 59.066 32.093 58.914 31.811 C 58.762 31.507 58.784 31.16 58.979 30.899 C 59.326 30.313 59.5 30.031 59.847 29.467 C 60.346 28.773 61.149 28.382 61.995 28.447 C 66.292 28.881 68.483 29.207 72.932 29.901 C 73.778 29.923 74.125 30.595 73.713 31.268 Z  M 90.812 34.827 C 90.421 35.391 90.226 35.673 89.814 36.281 C 89.249 36.975 88.316 37.3 87.448 37.105 C 82.892 35.998 80.635 35.521 76.143 34.653 C 75.297 34.501 74.971 33.829 75.405 33.178 C 75.818 32.505 75.948 32.288 76.317 31.724 C 76.859 31.008 77.749 30.66 78.617 30.812 C 83.152 31.659 85.43 32.158 90.052 33.243 C 90.899 33.46 91.268 34.154 90.812 34.827 Z  M 108.215 39.818 L 107.216 41.25 C 106.631 41.944 105.676 42.226 104.808 41.944 C 100.208 40.469 97.907 39.796 93.329 38.581 C 92.461 38.342 92.135 37.626 92.591 36.975 C 93.047 36.302 93.177 36.085 93.589 35.521 C 94.175 34.805 95.108 34.501 95.998 34.762 C 100.62 35.977 102.942 36.671 107.564 38.147 C 108.388 38.429 108.714 39.167 108.215 39.818 Z  M 125.422 46.219 C 124.988 46.783 124.771 47.065 124.337 47.629 C 123.708 48.302 122.753 48.519 121.907 48.172 C 117.415 46.349 115.137 45.503 110.58 43.897 C 109.712 43.593 109.408 42.834 109.886 42.161 C 110.363 41.51 110.515 41.315 110.884 40.751 C 111.491 40.056 112.446 39.796 113.314 40.1 C 117.914 41.727 120.214 42.573 124.728 44.439 C 125.118 44.505 125.422 44.787 125.574 45.134 C 125.704 45.503 125.639 45.915 125.422 46.219 Z  M 141.892 53.944 C 141.458 54.486 141.241 54.768 140.785 55.311 C 140.178 55.962 139.223 56.135 138.42 55.723 C 134.167 53.553 131.975 52.512 127.57 50.559 C 127.18 50.45 126.876 50.19 126.768 49.821 C 126.637 49.452 126.702 49.04 126.941 48.736 C 127.375 48.15 127.592 47.89 128.026 47.325 C 128.655 46.653 129.632 46.458 130.456 46.826 C 134.883 48.844 137.075 49.843 141.349 52.056 C 141.718 52.186 141.979 52.49 142.087 52.859 C 142.196 53.228 142.131 53.64 141.892 53.944 Z " fill="url(#_lgradient_2)"/><path d=" M 145.147 174.18 L 145.147 117.544 C 145.06 113.79 146.536 110.167 149.226 107.541 C 151.852 104.807 155.497 103.288 159.295 103.331 L 187.569 103.331 C 191.345 103.266 194.947 104.807 197.529 107.541 C 200.241 110.145 201.782 113.769 201.717 117.544 L 201.717 145.862 C 201.804 149.659 200.285 153.305 197.529 155.93 C 194.903 158.6 191.301 160.075 187.569 160.032 L 159.295 160.032 L 159.295 174.18 L 145.147 174.18 Z  M 187.569 145.862 L 187.569 117.544 L 159.295 117.544 L 159.295 145.862 L 187.569 145.862 Z " fill="rgb(13,52,73)"/><path d=" M 219.402 160.032 C 215.626 160.118 211.981 158.621 209.333 155.93 C 206.686 153.261 205.211 149.638 205.254 145.862 L 205.254 117.544 C 205.167 113.79 206.664 110.167 209.333 107.541 C 211.981 104.807 215.604 103.288 219.402 103.331 L 261.889 103.331 L 261.889 159.967 L 219.402 160.032 Z  M 247.698 145.862 L 247.698 117.544 L 219.402 117.544 L 219.402 145.862 L 247.698 145.862 Z " fill="rgb(13,52,73)"/><path d=" M 265.383 160.032 L 265.383 145.862 L 307.805 145.862 L 307.805 138.788 L 279.509 138.788 C 275.755 138.875 272.109 137.399 269.462 134.687 C 266.793 132.04 265.318 128.394 265.383 124.618 L 265.383 117.544 C 265.318 113.79 266.793 110.167 269.462 107.541 C 272.066 104.785 275.733 103.266 279.509 103.331 L 321.953 103.331 L 321.953 117.501 L 279.509 117.501 L 279.509 124.575 L 307.805 124.575 C 311.559 124.51 315.183 126.029 317.743 128.785 C 320.477 131.389 321.996 135.012 321.953 138.788 L 321.953 145.862 C 321.996 149.659 320.477 153.305 317.743 155.93 C 315.139 158.621 311.537 160.097 307.805 160.032 L 265.383 160.032 Z " fill="rgb(13,52,73)"/><path d=" M 325.49 160.032 L 325.49 145.862 L 367.934 145.862 L 367.934 138.788 L 339.638 138.788 C 335.862 138.875 332.217 137.399 329.591 134.687 C 326.9 132.04 325.425 128.394 325.49 124.618 L 325.49 117.544 C 325.446 113.79 326.922 110.167 329.591 107.541 C 332.195 104.785 335.84 103.266 339.638 103.331 L 382.06 103.331 L 382.06 117.501 L 339.638 117.501 L 339.638 124.575 L 367.934 124.575 C 371.688 124.51 375.29 126.029 377.872 128.785 C 380.584 131.389 382.103 135.012 382.06 138.788 L 382.06 145.862 C 382.125 149.659 380.606 153.305 377.872 155.93 C 375.268 158.621 371.666 160.097 367.934 160.032 L 325.49 160.032 Z " fill="rgb(13,52,73)"/><path d=" M 399.745 160.032 C 395.991 160.118 392.345 158.621 389.698 155.93 C 387.029 153.261 385.553 149.638 385.597 145.862 L 385.597 89.227 L 399.745 89.227 L 399.745 103.375 L 413.871 103.375 L 413.871 117.544 L 399.745 117.544 L 399.745 145.862 L 413.871 145.862 L 413.871 160.032 L 399.745 160.032 Z " fill="rgb(13,52,73)"/><path d=" M 417.43 160.032 L 417.43 117.544 C 417.343 113.79 418.84 110.167 421.531 107.541 C 424.156 104.807 427.802 103.288 431.578 103.331 L 459.874 103.331 L 459.874 117.501 L 431.578 117.501 L 431.578 159.967 L 417.43 160.032 Z " fill="rgb(13,52,73)"/><path d=" M 477.537 160.032 C 473.783 160.118 470.137 158.621 467.49 155.93 C 464.821 153.261 463.345 149.638 463.41 145.862 L 463.41 117.544 C 463.324 113.79 464.799 110.167 467.49 107.541 C 470.116 104.807 473.761 103.288 477.537 103.331 L 505.854 103.331 C 509.63 103.266 513.232 104.807 515.814 107.541 C 518.548 110.145 520.067 113.769 520.024 117.544 L 520.024 138.788 L 477.537 138.788 L 477.537 145.862 L 519.981 145.862 L 519.981 160.032 L 477.537 160.032 Z  M 505.854 124.618 L 505.854 117.544 L 477.537 117.544 L 477.537 124.618 L 505.854 124.618 Z " fill="rgb(13,52,73)"/><path d=" M 537.665 160.032 C 533.912 160.097 530.288 158.621 527.662 155.93 C 524.993 153.261 523.518 149.638 523.583 145.862 L 523.583 117.544 C 523.496 113.79 524.971 110.167 527.662 107.541 C 530.266 104.829 533.89 103.31 537.665 103.331 L 565.961 103.331 C 569.715 103.266 573.317 104.807 575.9 107.541 C 578.634 110.145 580.153 113.769 580.088 117.544 L 580.088 138.788 L 537.665 138.788 L 537.665 145.862 L 580.088 145.862 L 580.088 160.032 L 537.665 160.032 Z  M 565.961 124.618 L 565.961 117.544 L 537.665 117.544 L 537.665 124.618 L 565.961 124.618 Z " fill="rgb(13,52,73)"/><linearGradient id="_lgradient_3" x1="-0.00005451573266901377" y1="0.49989250672355623" x2="1.0000000000000004" y2="0.49989250672355623" gradientTransform="matrix(166.195,0,0,70.808,583.646,89.227)" gradientUnits="userSpaceOnUse"><stop offset="0%" stop-opacity="1" style="stop-color:rgb(17,166,233)"/><stop offset="100%" stop-opacity="1" style="stop-color:rgb(233,243,99)"/></linearGradient><path d=" M 583.646 160.032 L 583.646 145.862 L 597.794 145.862 L 597.794 160.032 L 583.646 160.032 Z  M 601.31 160.032 L 601.31 117.544 C 601.266 113.79 602.742 110.188 605.411 107.541 C 608.015 104.785 611.66 103.266 615.457 103.331 L 643.753 103.331 C 647.529 103.288 651.153 104.807 653.757 107.541 C 656.491 110.123 658.032 113.769 657.945 117.544 L 657.945 160.032 L 643.753 160.032 L 643.753 117.544 L 615.457 117.544 L 615.457 160.032 L 601.31 160.032 Z  M 675.586 160.032 C 671.811 160.118 668.165 158.621 665.518 155.93 C 662.849 153.261 661.373 149.638 661.438 145.862 L 661.438 117.544 C 661.352 113.79 662.827 110.167 665.518 107.541 C 668.143 104.807 671.789 103.288 675.586 103.331 L 703.839 103.331 C 707.614 103.266 711.26 104.785 713.842 107.541 C 716.576 110.145 718.095 113.769 718.052 117.544 L 718.052 138.788 L 675.586 138.788 L 675.586 145.862 L 718.008 145.862 L 718.008 160.032 L 675.586 160.032 Z  M 703.839 124.618 L 703.839 117.544 L 675.586 117.544 L 675.586 124.618 L 703.839 124.618 Z  M 735.672 160.032 C 731.918 160.097 728.272 158.621 725.647 155.93 C 722.978 153.261 721.502 149.638 721.545 145.862 L 721.545 89.227 L 735.693 89.227 L 735.693 103.375 L 749.841 103.375 L 749.841 117.544 L 735.693 117.544 L 735.693 145.862 L 749.841 145.862 L 749.841 160.032 L 735.672 160.032 Z " fill="url(#_lgradient_3)"/><path d=" M 543.572 183.579 L 543.572 187.078 L 538.673 187.078 L 538.673 203.41 L 543.572 203.41 L 543.572 206.91 L 529.84 206.91 L 529.84 203.41 L 534.706 203.41 L 534.706 187.078 L 529.84 187.078 L 529.84 183.579 L 543.572 183.579 Z  M 553.205 206.91 L 549.505 206.91 L 549.505 183.579 L 553.271 183.579 L 560.537 197.977 L 560.537 197.977 Q 561.137 199.011 561.371 199.577 L 561.371 199.577 L 561.371 199.577 Q 561.304 198.311 561.304 197.977 L 561.304 197.977 L 561.304 183.579 L 564.97 183.579 L 564.97 206.91 L 561.371 206.91 L 553.971 192.445 L 553.971 192.445 Q 553.371 191.411 553.105 190.845 L 553.105 190.845 L 553.105 190.845 Q 553.205 191.345 553.205 192.445 L 553.205 192.445 L 553.205 206.91 Z  M 578.036 207.31 L 578.036 207.31 L 578.036 207.31 Q 575.202 207.31 572.936 205.677 L 572.936 205.677 L 572.936 205.677 Q 570.67 204.043 569.736 201.31 L 569.736 201.31 L 573.336 199.977 L 573.336 199.977 Q 574.103 201.61 575.453 202.594 L 575.453 202.594 L 575.453 202.594 Q 576.802 203.577 578.369 203.577 L 578.369 203.577 L 578.369 203.577 Q 579.902 203.577 580.835 202.777 L 580.835 202.777 L 580.835 202.777 Q 581.769 201.977 581.769 200.477 L 581.769 200.477 L 581.769 200.477 Q 581.769 199.211 580.502 198.227 L 580.502 198.227 L 580.502 198.227 Q 579.235 197.244 576.969 196.244 L 576.969 196.244 L 576.969 196.244 Q 575.536 195.611 574.669 195.144 L 574.669 195.144 L 574.669 195.144 Q 573.803 194.678 572.719 193.844 L 572.719 193.844 L 572.719 193.844 Q 571.636 193.011 571.103 191.878 L 571.103 191.878 L 571.103 191.878 Q 570.57 190.745 570.57 189.345 L 570.57 189.345 L 570.57 189.345 Q 570.57 186.745 572.553 184.962 L 572.553 184.962 L 572.553 184.962 Q 574.536 183.179 577.769 183.179 L 577.769 183.179 L 577.769 183.179 Q 580.335 183.179 582.252 184.579 L 582.252 184.579 L 582.252 184.579 Q 584.168 185.978 584.802 188.145 L 584.802 188.145 L 581.235 189.345 L 581.235 189.345 Q 580.035 186.912 577.536 186.912 L 577.536 186.912 L 577.536 186.912 Q 576.236 186.912 575.402 187.578 L 575.402 187.578 L 575.402 187.578 Q 574.569 188.245 574.569 189.411 L 574.569 189.411 L 574.569 189.411 Q 574.569 189.678 574.636 189.928 L 574.636 189.928 L 574.636 189.928 Q 574.703 190.178 574.869 190.395 L 574.869 190.395 L 574.869 190.395 Q 575.036 190.611 575.186 190.795 L 575.186 190.795 L 575.186 190.795 Q 575.336 190.978 575.652 191.195 L 575.652 191.195 L 575.652 191.195 Q 575.969 191.411 576.186 191.545 L 576.186 191.545 L 576.186 191.545 Q 576.402 191.678 576.836 191.895 L 576.836 191.895 L 576.836 191.895 Q 577.269 192.111 577.502 192.211 L 577.502 192.211 L 577.502 192.211 Q 577.736 192.311 578.269 192.561 L 578.269 192.561 L 578.269 192.561 Q 578.802 192.811 579.035 192.911 L 579.035 192.911 L 579.035 192.911 Q 580.435 193.544 581.369 194.094 L 581.369 194.094 L 581.369 194.094 Q 582.302 194.644 583.435 195.544 L 583.435 195.544 L 583.435 195.544 Q 584.568 196.444 585.168 197.677 L 585.168 197.677 L 585.168 197.677 Q 585.768 198.911 585.768 200.377 L 585.768 200.377 L 585.768 200.377 Q 585.768 203.577 583.518 205.443 L 583.518 205.443 L 583.518 205.443 Q 581.269 207.31 578.036 207.31 Z  M 600.267 206.91 L 596.3 206.91 L 596.3 187.378 L 589.534 187.378 L 589.534 183.579 L 607.066 183.579 L 607.066 187.378 L 600.267 187.378 L 600.267 206.91 Z  M 626.798 190.645 L 626.798 190.645 L 626.798 190.645 Q 626.798 192.911 625.581 194.744 L 625.581 194.744 L 625.581 194.744 Q 624.364 196.577 622.065 197.344 L 622.065 197.344 L 626.764 206.91 L 622.365 206.91 L 617.832 197.777 L 615.065 197.777 L 615.065 206.91 L 611.099 206.91 L 611.099 183.579 L 619.165 183.579 L 619.165 183.579 Q 621.231 183.579 622.765 184.162 L 622.765 184.162 L 622.765 184.162 Q 624.298 184.745 625.148 185.762 L 625.148 185.762 L 625.148 185.762 Q 625.998 186.778 626.398 187.995 L 626.398 187.995 L 626.398 187.995 Q 626.798 189.211 626.798 190.645 Z  M 619.232 187.312 L 615.065 187.312 L 615.065 194.044 L 619.232 194.044 L 619.232 194.044 Q 621.098 194.044 621.915 193.094 L 621.915 193.094 L 621.915 193.094 Q 622.731 192.145 622.731 190.678 L 622.731 190.678 L 622.731 190.678 Q 622.731 189.278 621.931 188.295 L 621.931 188.295 L 621.931 188.295 Q 621.131 187.312 619.232 187.312 L 619.232 187.312 Z  M 639.363 207.31 L 639.363 207.31 L 639.363 207.31 Q 635.897 207.31 633.697 205.093 L 633.697 205.093 L 633.697 205.093 Q 631.497 202.877 631.497 198.011 L 631.497 198.011 L 631.497 183.579 L 635.43 183.579 L 635.43 198.011 L 635.43 198.011 Q 635.43 201.044 636.463 202.294 L 636.463 202.294 L 636.463 202.294 Q 637.497 203.543 639.363 203.543 L 639.363 203.543 L 639.363 203.543 Q 643.296 203.543 643.296 198.011 L 643.296 198.011 L 643.296 183.579 L 647.262 183.579 L 647.262 198.011 L 647.262 198.011 Q 647.262 202.81 645.062 205.06 L 645.062 205.06 L 645.062 205.06 Q 642.863 207.31 639.363 207.31 Z  M 660.294 207.276 L 660.294 207.276 L 660.294 207.276 Q 658.328 207.276 656.745 206.576 L 656.745 206.576 L 656.745 206.576 Q 655.162 205.877 654.112 204.727 L 654.112 204.727 L 654.112 204.727 Q 653.062 203.577 652.362 201.994 L 652.362 201.994 L 652.362 201.994 Q 651.662 200.41 651.362 198.727 L 651.362 198.727 L 651.362 198.727 Q 651.062 197.044 651.062 195.244 L 651.062 195.244 L 651.062 195.244 Q 651.062 193.044 651.578 190.995 L 651.578 190.995 L 651.578 190.995 Q 652.095 188.945 653.162 187.162 L 653.162 187.162 L 653.162 187.162 Q 654.228 185.379 656.061 184.295 L 656.061 184.295 L 656.061 184.295 Q 657.895 183.212 660.294 183.212 L 660.294 183.212 L 660.294 183.212 Q 663.027 183.212 664.861 184.612 L 664.861 184.612 L 664.861 184.612 Q 666.694 186.012 667.527 188.078 L 667.527 188.078 L 663.994 189.778 L 663.994 189.778 Q 663.261 188.378 662.411 187.678 L 662.411 187.678 L 662.411 187.678 Q 661.561 186.978 660.294 186.978 L 660.294 186.978 L 660.294 186.978 Q 658.494 186.978 657.295 188.312 L 657.295 188.312 L 657.295 188.312 Q 656.095 189.645 655.628 191.428 L 655.628 191.428 L 655.628 191.428 Q 655.162 193.211 655.162 195.244 L 655.162 195.244 L 655.162 195.244 Q 655.162 198.544 656.495 201.027 L 656.495 201.027 L 656.495 201.027 Q 657.828 203.51 660.294 203.51 L 660.294 203.51 L 660.294 203.51 Q 662.627 203.51 664.027 200.51 L 664.027 200.51 L 667.627 201.877 L 667.627 201.877 Q 665.427 207.276 660.294 207.276 Z  M 682.392 206.91 L 678.426 206.91 L 678.426 187.378 L 671.66 187.378 L 671.66 183.579 L 689.192 183.579 L 689.192 187.378 L 682.392 187.378 L 682.392 206.91 Z  M 700.957 207.31 L 700.957 207.31 L 700.957 207.31 Q 697.957 207.31 695.908 205.56 L 695.908 205.56 L 695.908 205.56 Q 693.858 203.81 692.991 201.177 L 692.991 201.177 L 692.991 201.177 Q 692.125 198.544 692.125 195.244 L 692.125 195.244 L 692.125 195.244 Q 692.125 191.945 692.991 189.311 L 692.991 189.311 L 692.991 189.311 Q 693.858 186.678 695.908 184.929 L 695.908 184.929 L 695.908 184.929 Q 697.957 183.179 700.957 183.179 L 700.957 183.179 L 700.957 183.179 Q 702.79 183.179 704.29 183.829 L 704.29 183.829 L 704.29 183.829 Q 705.79 184.479 706.806 185.612 L 706.806 185.612 L 706.806 185.612 Q 707.823 186.745 708.506 188.295 L 708.506 188.295 L 708.506 188.295 Q 709.19 189.845 709.506 191.578 L 709.506 191.578 L 709.506 191.578 Q 709.823 193.311 709.823 195.244 L 709.823 195.244 L 709.823 195.244 Q 709.823 197.177 709.506 198.911 L 709.506 198.911 L 709.506 198.911 Q 709.19 200.644 708.506 202.194 L 708.506 202.194 L 708.506 202.194 Q 707.823 203.743 706.806 204.877 L 706.806 204.877 L 706.806 204.877 Q 705.79 206.01 704.29 206.66 L 704.29 206.66 L 704.29 206.66 Q 702.79 207.31 700.957 207.31 Z  M 700.957 203.543 L 700.957 203.543 L 700.957 203.543 Q 702.524 203.543 703.624 202.31 L 703.624 202.31 L 703.624 202.31 Q 704.723 201.077 705.207 199.261 L 705.207 199.261 L 705.207 199.261 Q 705.69 197.444 705.69 195.244 L 705.69 195.244 L 705.69 195.244 Q 705.69 191.645 704.507 189.295 L 704.507 189.295 L 704.507 189.295 Q 703.324 186.945 700.957 186.945 L 700.957 186.945 L 700.957 186.945 Q 698.624 186.945 697.424 189.361 L 697.424 189.361 L 697.424 189.361 Q 696.224 191.778 696.224 195.244 L 696.224 195.244 L 696.224 195.244 Q 696.224 198.811 697.407 201.177 L 697.407 201.177 L 697.407 201.177 Q 698.591 203.543 700.957 203.543 Z  M 729.454 190.645 L 729.454 190.645 L 729.454 190.645 Q 729.454 192.911 728.238 194.744 L 728.238 194.744 L 728.238 194.744 Q 727.021 196.577 724.721 197.344 L 724.721 197.344 L 729.421 206.91 L 725.021 206.91 L 720.489 197.777 L 717.722 197.777 L 717.722 206.91 L 713.756 206.91 L 713.756 183.579 L 721.822 183.579 L 721.822 183.579 Q 723.888 183.579 725.421 184.162 L 725.421 184.162 L 725.421 184.162 Q 726.955 184.745 727.804 185.762 L 727.804 185.762 L 727.804 185.762 Q 728.654 186.778 729.054 187.995 L 729.054 187.995 L 729.054 187.995 Q 729.454 189.211 729.454 190.645 Z  M 721.888 187.312 L 717.722 187.312 L 717.722 194.044 L 721.888 194.044 L 721.888 194.044 Q 723.755 194.044 724.571 193.094 L 724.571 193.094 L 724.571 193.094 Q 725.388 192.145 725.388 190.678 L 725.388 190.678 L 725.388 190.678 Q 725.388 189.278 724.588 188.295 L 724.588 188.295 L 724.588 188.295 Q 723.788 187.312 721.888 187.312 L 721.888 187.312 Z  M 742.286 207.31 L 742.286 207.31 L 742.286 207.31 Q 739.453 207.31 737.187 205.677 L 737.187 205.677 L 737.187 205.677 Q 734.92 204.043 733.987 201.31 L 733.987 201.31 L 737.587 199.977 L 737.587 199.977 Q 738.353 201.61 739.703 202.594 L 739.703 202.594 L 739.703 202.594 Q 741.053 203.577 742.62 203.577 L 742.62 203.577 L 742.62 203.577 Q 744.153 203.577 745.086 202.777 L 745.086 202.777 L 745.086 202.777 Q 746.019 201.977 746.019 200.477 L 746.019 200.477 L 746.019 200.477 Q 746.019 199.211 744.753 198.227 L 744.753 198.227 L 744.753 198.227 Q 743.486 197.244 741.22 196.244 L 741.22 196.244 L 741.22 196.244 Q 739.787 195.611 738.92 195.144 L 738.92 195.144 L 738.92 195.144 Q 738.053 194.678 736.97 193.844 L 736.97 193.844 L 736.97 193.844 Q 735.887 193.011 735.354 191.878 L 735.354 191.878 L 735.354 191.878 Q 734.82 190.745 734.82 189.345 L 734.82 189.345 L 734.82 189.345 Q 734.82 186.745 736.804 184.962 L 736.804 184.962 L 736.804 184.962 Q 738.787 183.179 742.02 183.179 L 742.02 183.179 L 742.02 183.179 Q 744.586 183.179 746.503 184.579 L 746.503 184.579 L 746.503 184.579 Q 748.419 185.978 749.052 188.145 L 749.052 188.145 L 745.486 189.345 L 745.486 189.345 Q 744.286 186.912 741.786 186.912 L 741.786 186.912 L 741.786 186.912 Q 740.487 186.912 739.653 187.578 L 739.653 187.578 L 739.653 187.578 Q 738.82 188.245 738.82 189.411 L 738.82 189.411 L 738.82 189.411 Q 738.82 189.678 738.887 189.928 L 738.887 189.928 L 738.887 189.928 Q 738.953 190.178 739.12 190.395 L 739.12 190.395 L 739.12 190.395 Q 739.287 190.611 739.437 190.795 L 739.437 190.795 L 739.437 190.795 Q 739.587 190.978 739.903 191.195 L 739.903 191.195 L 739.903 191.195 Q 740.22 191.411 740.437 191.545 L 740.437 191.545 L 740.437 191.545 Q 740.653 191.678 741.087 191.895 L 741.087 191.895 L 741.087 191.895 Q 741.52 192.111 741.753 192.211 L 741.753 192.211 L 741.753 192.211 Q 741.986 192.311 742.52 192.561 L 742.52 192.561 L 742.52 192.561 Q 743.053 192.811 743.286 192.911 L 743.286 192.911 L 743.286 192.911 Q 744.686 193.544 745.619 194.094 L 745.619 194.094 L 745.619 194.094 Q 746.553 194.644 747.686 195.544 L 747.686 195.544 L 747.686 195.544 Q 748.819 196.444 749.419 197.677 L 749.419 197.677 L 749.419 197.677 Q 750.019 198.911 750.019 200.377 L 750.019 200.377 L 750.019 200.377 Q 750.019 203.577 747.769 205.443 L 747.769 205.443 L 747.769 205.443 Q 745.519 207.31 742.286 207.31 Z  M 450.814 206.91 L 446.848 206.91 L 446.848 183.579 L 462.58 183.579 L 462.58 187.345 L 450.814 187.345 L 450.814 192.978 L 459.38 192.978 L 459.38 196.744 L 450.814 196.744 L 450.814 206.91 Z  M 475.112 207.31 L 475.112 207.31 L 475.112 207.31 Q 472.112 207.31 470.063 205.56 L 470.063 205.56 L 470.063 205.56 Q 468.013 203.81 467.146 201.177 L 467.146 201.177 L 467.146 201.177 Q 466.28 198.544 466.28 195.244 L 466.28 195.244 L 466.28 195.244 Q 466.28 191.945 467.146 189.311 L 467.146 189.311 L 467.146 189.311 Q 468.013 186.678 470.063 184.929 L 470.063 184.929 L 470.063 184.929 Q 472.112 183.179 475.112 183.179 L 475.112 183.179 L 475.112 183.179 Q 476.945 183.179 478.445 183.829 L 478.445 183.829 L 478.445 183.829 Q 479.945 184.479 480.962 185.612 L 480.962 185.612 L 480.962 185.612 Q 481.978 186.745 482.661 188.295 L 482.661 188.295 L 482.661 188.295 Q 483.345 189.845 483.661 191.578 L 483.661 191.578 L 483.661 191.578 Q 483.978 193.311 483.978 195.244 L 483.978 195.244 L 483.978 195.244 Q 483.978 197.177 483.661 198.911 L 483.661 198.911 L 483.661 198.911 Q 483.345 200.644 482.661 202.194 L 482.661 202.194 L 482.661 202.194 Q 481.978 203.743 480.962 204.877 L 480.962 204.877 L 480.962 204.877 Q 479.945 206.01 478.445 206.66 L 478.445 206.66 L 478.445 206.66 Q 476.945 207.31 475.112 207.31 Z  M 475.112 203.543 L 475.112 203.543 L 475.112 203.543 Q 476.679 203.543 477.779 202.31 L 477.779 202.31 L 477.779 202.31 Q 478.878 201.077 479.362 199.261 L 479.362 199.261 L 479.362 199.261 Q 479.845 197.444 479.845 195.244 L 479.845 195.244 L 479.845 195.244 Q 479.845 191.645 478.662 189.295 L 478.662 189.295 L 478.662 189.295 Q 477.479 186.945 475.112 186.945 L 475.112 186.945 L 475.112 186.945 Q 472.779 186.945 471.579 189.361 L 471.579 189.361 L 471.579 189.361 Q 470.379 191.778 470.379 195.244 L 470.379 195.244 L 470.379 195.244 Q 470.379 198.811 471.562 201.177 L 471.562 201.177 L 471.562 201.177 Q 472.746 203.543 475.112 203.543 Z  M 503.609 190.645 L 503.609 190.645 L 503.609 190.645 Q 503.609 192.911 502.393 194.744 L 502.393 194.744 L 502.393 194.744 Q 501.176 196.577 498.877 197.344 L 498.877 197.344 L 503.576 206.91 L 499.177 206.91 L 494.644 197.777 L 491.877 197.777 L 491.877 206.91 L 487.911 206.91 L 487.911 183.579 L 495.977 183.579 L 495.977 183.579 Q 498.043 183.579 499.576 184.162 L 499.576 184.162 L 499.576 184.162 Q 501.11 184.745 501.96 185.762 L 501.96 185.762 L 501.96 185.762 Q 502.809 186.778 503.209 187.995 L 503.209 187.995 L 503.209 187.995 Q 503.609 189.211 503.609 190.645 Z  M 496.043 187.312 L 491.877 187.312 L 491.877 194.044 L 496.043 194.044 L 496.043 194.044 Q 497.91 194.044 498.727 193.094 L 498.727 193.094 L 498.727 193.094 Q 499.543 192.145 499.543 190.678 L 499.543 190.678 L 499.543 190.678 Q 499.543 189.278 498.743 188.295 L 498.743 188.295 L 498.743 188.295 Q 497.943 187.312 496.043 187.312 L 496.043 187.312 Z " fill="rgb(13,52,73)"/></g></svg>