<?xml version="1.0" encoding="UTF-8" standalone="no"?><!-- Generator: Gravit.io --><svg xmlns="http://www.w3.org/2000/svg" xmlns:xlink="http://www.w3.org/1999/xlink" style="isolation:isolate" viewBox="0 0 100 100" width="100pt" height="100pt"><defs><clipPath id="_clipPath_NQiqYBHRHfSYyBQukFBlK2QZJG2l0ovg"><rect width="100" height="100"/></clipPath></defs><g clip-path="url(#_clipPath_NQiqYBHRHfSYyBQukFBlK2QZJG2l0ovg)"><path d=" M 65.954 0.063 C 64.52 0.063 63.119 0.676 62.022 1.752 L 61.96 1.69 L 50.164 13.392 C 49.843 13.587 49.583 13.869 49.415 14.205 L 1.607 61.765 C 1.607 61.785 1.607 61.806 1.607 61.827 C -0.598 64.038 -0.598 67.626 1.607 69.837 L 7.848 76.032 C 8.552 76.744 9.672 76.824 10.47 76.22 C 12.188 74.842 14.423 73.842 16.648 73.842 C 21.958 73.842 26.01 78.098 26.01 83.229 C 26.01 85.556 25.169 87.664 23.701 89.299 C 23.006 90.104 23.061 91.314 23.826 92.052 L 30.005 98.248 C 32.21 100.459 35.788 100.459 37.993 98.248 L 52.161 84.042 C 52.757 83.561 53.026 82.781 52.854 82.034 C 52.683 81.287 52.101 80.703 51.356 80.531 C 50.61 80.359 49.832 80.629 49.352 81.226 L 35.185 95.432 C 34.594 96.024 33.404 96.024 32.813 95.432 L 27.695 90.3 C 29.056 88.204 30.005 85.822 30.005 83.229 C 30.005 75.945 24.121 69.837 16.648 69.837 C 13.973 69.837 11.627 70.869 9.596 72.153 L 4.478 67.021 C 3.887 66.429 3.887 65.236 4.478 64.643 L 51.225 18.022 C 51.727 18.537 52.464 18.743 53.159 18.565 C 53.854 18.386 54.401 17.85 54.594 17.157 C 54.788 16.464 54.598 15.721 54.096 15.206 L 64.768 4.568 C 65.359 3.976 66.549 3.976 67.14 4.568 L 72.258 9.7 C 71.042 11.7 70.136 13.994 70.136 16.583 C 70.136 23.868 76.082 29.975 83.554 29.975 C 86.141 29.975 88.36 29.07 90.357 27.847 L 95.475 32.979 C 96.066 33.571 96.066 34.764 95.475 35.357 L 84.803 46.057 L 84.74 45.995 C 84.323 45.549 83.725 45.318 83.118 45.369 C 82.34 45.445 81.678 45.968 81.423 46.708 C 81.168 47.449 81.367 48.27 81.932 48.811 L 81.994 48.874 L 81.745 49.186 C 81.149 49.668 80.88 50.447 81.051 51.195 C 81.223 51.942 81.805 52.526 82.55 52.698 C 83.295 52.869 84.073 52.6 84.553 52.002 L 85.801 50.688 C 85.866 50.65 85.929 50.608 85.989 50.563 L 86.176 50.438 C 86.219 50.398 86.261 50.356 86.301 50.313 L 86.55 50 C 86.595 49.94 86.637 49.877 86.675 49.812 L 98.346 38.173 C 100.551 35.962 100.551 32.374 98.346 30.163 L 92.105 23.967 C 91.401 23.256 90.281 23.176 89.484 23.78 C 87.778 25.148 85.875 25.97 83.554 25.97 C 78.245 25.97 74.13 21.714 74.13 16.583 C 74.13 14.256 74.95 12.286 76.315 10.576 C 76.917 9.776 76.837 8.653 76.127 7.947 L 69.949 1.752 C 68.846 0.647 67.407 0.063 65.954 0.063 Z  M 57.903 20.213 L 56.405 21.214 L 56.343 23.029 L 56.78 23.592 L 59.526 26.408 L 61.273 26.971 L 62.709 25.907 L 62.771 24.155 L 62.397 23.529 L 59.588 20.776 L 57.903 20.213 Z  M 66.266 28.598 L 64.831 29.662 L 64.768 31.414 L 65.143 32.04 L 67.951 34.856 L 69.637 35.419 L 71.134 34.355 L 71.197 32.603 L 70.822 31.977 L 68.014 29.161 L 66.266 28.598 Z  M 74.692 37.046 L 73.256 38.047 L 73.194 39.862 L 73.568 40.425 L 76.377 43.241 L 78.062 43.805 L 79.56 42.803 L 79.623 40.989 L 79.186 40.425 L 76.377 37.609 L 74.692 37.046 Z  M 55.968 78.035 M 59.963 78.035" fill="rgb(0,0,0)"/><path d=" M 1657.492 381.831 L 1657.492 829.831 Q 1657.492 855.831 1638.492 874.831 Q 1619.492 893.831 1593.492 893.831 L 1145.492 893.831 Q 1103.492 893.831 1086.492 853.831 Q 1069.492 814.831 1100.492 784.831 L 1238.492 646.831 Q 1090.492 509.831 889.492 509.831 Q 785.492 509.831 690.992 550.331 Q 596.492 590.831 527.492 659.831 Q 458.492 728.831 417.992 823.331 Q 377.492 917.831 377.492 1021.831 Q 377.492 1125.831 417.992 1220.331 Q 458.492 1314.831 527.492 1383.831 Q 596.492 1452.831 690.992 1493.331 Q 785.492 1533.831 889.492 1533.831 Q 1058.492 1533.831 1193.492 1434.331 Q 1328.492 1334.831 1378.492 1172.831 Q 1385.492 1149.831 1408.492 1149.831 L 1607.492 1149.831 Q 1623.492 1149.831 1632.492 1161.831 Q 1642.492 1174.831 1639.492 1188.831 Q 1600.492 1363.831 1491.992 1500.831 Q 1383.492 1637.831 1225.992 1713.831 Q 1068.492 1789.831 889.492 1789.831 Q 733.492 1789.831 591.492 1728.831 Q 449.492 1667.831 346.492 1564.831 Q 243.492 1461.831 182.492 1319.831 Q 121.492 1177.831 121.492 1021.831 Q 121.492 865.831 182.492 723.831 Q 243.492 581.831 346.492 478.831 Q 449.492 375.831 591.492 314.831 Q 733.492 253.831 889.492 253.831 Q 1036.492 253.831 1173.992 309.331 Q 1311.492 364.831 1418.492 465.831 L 1548.492 336.831 Q 1577.492 305.831 1618.492 322.831 Q 1657.492 339.831 1657.492 381.831 Z " fill="rgb(0,0,0)"/><g><g><path d=" M 56.666 80.836 C 54.495 79.666 52.661 78.149 51.16 76.291 C 49.66 74.432 48.611 72.437 48.001 70.319 C 47.392 68.198 47.239 65.984 47.541 63.672 C 47.842 61.359 48.622 59.191 49.875 57.164 C 51.129 55.136 52.752 53.422 54.742 52.021 C 56.735 50.621 58.864 49.637 61.134 49.069 C 63.405 48.501 65.775 48.358 68.251 48.64 C 70.726 48.921 73.047 49.65 75.218 50.821 C 78.782 52.743 81.375 55.493 82.999 59.076 L 88.926 57.593 C 89.07 57.557 89.192 57.565 89.284 57.614 C 89.431 57.694 89.437 57.848 89.298 58.072 L 83.481 67.484 C 83.373 67.658 83.212 67.771 82.989 67.827 C 82.772 67.881 82.566 67.86 82.38 67.759 L 72.304 62.325 C 72.061 62.194 71.987 62.06 72.072 61.923 C 72.125 61.837 72.226 61.773 72.37 61.736 L 78.209 60.275 C 77 57.867 75.197 56.017 72.804 54.726 C 71.187 53.854 69.468 53.319 67.634 53.118 C 65.805 52.915 64.054 53.025 62.383 53.443 C 60.713 53.861 59.141 54.586 57.662 55.613 C 56.187 56.643 54.979 57.911 54.046 59.421 C 52.802 61.433 52.181 63.577 52.183 65.857 C 52.186 68.137 52.796 70.263 54.014 72.239 C 55.232 74.215 56.918 75.782 59.072 76.943 C 61.226 78.105 63.521 78.685 65.962 78.683 C 68.403 78.68 70.679 78.111 72.794 76.973 C 74.91 75.835 76.586 74.26 77.83 72.248 L 82.004 74.499 C 80.751 76.527 79.128 78.241 77.138 79.642 C 75.145 81.042 73.016 82.025 70.745 82.594 C 68.48 83.153 66.108 83.299 63.635 83.014 C 61.159 82.733 58.836 82.007 56.666 80.836 Z " fill="rgb(0,0,0)"/></g></g></g></svg>