<?xml version="1.0" encoding="UTF-8" standalone="no"?><!-- Generator: Gravit.io --><svg xmlns="http://www.w3.org/2000/svg" xmlns:xlink="http://www.w3.org/1999/xlink" style="isolation:isolate" viewBox="0 0 100 100" width="100pt" height="100pt"><defs><clipPath id="_clipPath_Gbbh35nwUK3si0vB4CVyfFIr39Qxk97G"><rect width="100" height="100"/></clipPath></defs><g clip-path="url(#_clipPath_Gbbh35nwUK3si0vB4CVyfFIr39Qxk97G)"><path d=" M 66.003 0.063 C 64.568 0.063 63.166 0.675 62.068 1.749 L 62.006 1.686 L 50.201 13.366 C 49.88 13.561 49.62 13.843 49.452 14.178 L 1.608 61.647 C 1.608 61.668 1.608 61.689 1.608 61.709 C -0.598 63.916 -0.598 67.497 1.608 69.704 L 7.854 75.888 C 8.559 76.597 9.679 76.678 10.477 76.075 C 12.197 74.699 14.434 73.702 16.661 73.702 C 21.974 73.702 26.03 77.949 26.03 83.07 C 26.03 85.393 25.188 87.497 23.719 89.129 C 23.023 89.932 23.078 91.14 23.844 91.877 L 30.027 98.06 C 32.234 100.267 35.815 100.267 38.022 98.06 L 85.303 50.779 L 85.366 50.779 C 86.128 50.598 86.714 49.987 86.865 49.218 C 86.865 49.197 86.865 49.176 86.865 49.155 L 97.982 38.1 C 98.057 38.044 98.099 37.972 98.17 37.913 C 100.571 35.901 100.563 32.249 98.419 30.105 L 92.174 23.922 C 91.469 23.212 90.348 23.132 89.55 23.734 C 87.843 25.1 85.939 25.92 83.617 25.92 C 78.304 25.92 74.185 21.673 74.185 16.552 C 74.185 14.229 75.006 12.262 76.371 10.556 C 76.974 9.757 76.894 8.637 76.184 7.932 L 70.001 1.749 C 68.897 0.646 67.457 0.063 66.003 0.063 Z  M 66.003 4.122 C 66.449 4.122 66.894 4.264 67.19 4.56 L 72.312 9.681 C 71.095 11.678 70.188 13.968 70.188 16.552 C 70.188 23.822 76.138 29.918 83.617 29.918 C 86.205 29.918 88.426 29.015 90.425 27.794 L 95.546 32.916 C 96.138 33.507 96.184 34.483 95.609 34.915 C 95.521 34.97 95.437 35.033 95.359 35.102 L 84.679 45.782 C 84.269 45.417 83.727 45.236 83.18 45.283 C 82.432 45.354 81.787 45.838 81.51 46.536 C 81.234 47.235 81.372 48.029 81.868 48.593 L 35.211 95.25 C 34.62 95.841 33.429 95.841 32.838 95.25 L 27.716 90.128 C 29.078 88.036 30.027 85.659 30.027 83.07 C 30.027 75.8 24.139 69.704 16.661 69.704 C 13.984 69.704 11.636 70.734 9.603 72.015 L 4.481 66.894 C 3.89 66.302 3.89 65.112 4.481 64.52 L 51.263 17.988 C 51.765 18.501 52.503 18.708 53.198 18.53 C 53.894 18.351 54.441 17.816 54.635 17.124 C 54.828 16.433 54.638 15.691 54.136 15.178 L 64.817 4.56 C 65.112 4.264 65.558 4.122 66.003 4.122 Z  M 57.946 20.174 L 56.447 21.174 L 56.385 22.985 L 56.822 23.547 L 59.57 26.358 L 61.319 26.92 L 62.755 25.858 L 62.818 24.109 L 62.443 23.485 L 59.633 20.736 L 57.946 20.174 Z  M 66.316 28.544 L 64.879 29.606 L 64.817 31.354 L 65.191 31.979 L 68.002 34.79 L 69.688 35.352 L 71.187 34.29 L 71.25 32.541 L 70.875 31.917 L 68.064 29.106 L 66.316 28.544 Z  M 74.748 36.976 L 73.311 37.975 L 73.249 39.786 L 73.623 40.348 L 76.434 43.159 L 78.12 43.721 L 79.619 42.722 L 79.682 40.911 L 79.245 40.348 L 76.434 37.538 L 74.748 36.976 Z " fill="rgb(0,0,0)"/></g></svg>