<?xml version="1.0" encoding="UTF-8" standalone="no"?><!-- Generator: Gravit.io --><svg xmlns="http://www.w3.org/2000/svg" xmlns:xlink="http://www.w3.org/1999/xlink" style="isolation:isolate" viewBox="0 0 48 48" width="48pt" height="48pt"><defs><clipPath id="_clipPath_H1SHoevf7uWpy9GebzDJFG81rSoPaRk3"><rect width="48" height="48"/></clipPath></defs><g clip-path="url(#_clipPath_H1SHoevf7uWpy9GebzDJFG81rSoPaRk3)"><path d=" M 0.777 29.266 L 0.777 29.218 L 23.213 6.879 C 23.329 6.675 23.485 6.51 23.679 6.374 L 29.616 0.486 L 29.684 0.554 C 30.219 0.204 30.831 0.01 31.472 0 C 32.356 0.01 33.201 0.36 33.823 0.991 L 36.699 3.887 C 37.001 4.188 37.176 4.606 37.176 5.033 C 37.176 5.383 37.059 5.733 36.845 6.015 C 36.291 6.685 35.98 7.53 35.971 8.405 C 35.971 9.386 36.369 10.329 37.059 11.019 C 37.759 11.718 38.701 12.107 39.682 12.107 C 40.11 12.107 40.528 12.029 40.926 11.883 C 41.325 11.718 41.694 11.504 42.024 11.232 C 42.306 11.009 42.656 10.892 43.015 10.892 C 43.443 10.892 43.851 11.067 44.152 11.368 L 47.067 14.264 C 47.067 14.264 47.067 14.264 47.067 14.264 C 47.669 14.866 48 15.683 48 16.538 C 48.01 17.441 47.621 18.306 46.931 18.889 L 46.912 18.918 L 46.863 18.967 L 41.82 24 C 41.665 24.486 41.295 24.865 40.819 25.03 L 18.908 47.028 C 18.287 47.65 17.451 48 16.567 48 C 15.683 48 14.837 47.65 14.225 47.028 L 11.339 44.133 C 11.028 43.832 10.853 43.414 10.853 42.977 C 10.853 42.588 10.999 42.209 11.252 41.917 C 11.835 41.266 12.165 40.411 12.155 39.527 C 12.165 38.555 11.786 37.613 11.096 36.913 C 10.406 36.214 9.464 35.825 8.473 35.825 C 8.036 35.835 7.608 35.922 7.2 36.087 C 6.772 36.262 6.374 36.505 6.015 36.797 C 5.733 37.011 5.383 37.127 5.023 37.127 C 4.596 37.127 4.188 36.952 3.887 36.651 L 0.972 33.755 C 0.972 33.755 0.972 33.755 0.972 33.755 C 0.35 33.134 0 32.288 0 31.404 C 0 30.627 0.272 29.869 0.777 29.266 Z  M 31.472 1.904 C 31.851 1.895 32.21 2.031 32.492 2.293 C 32.492 2.293 32.502 2.303 32.512 2.303 L 34.892 4.703 C 35.116 4.926 35.155 5.276 34.989 5.538 C 34.727 5.966 34.513 6.432 34.348 6.909 C 34.193 7.385 34.105 7.89 34.105 8.405 C 34.105 9.882 34.698 11.3 35.738 12.34 C 36.787 13.389 38.206 13.972 39.682 13.972 C 40.188 13.972 40.683 13.895 41.15 13.73 C 41.626 13.564 42.073 13.351 42.5 13.088 C 42.763 12.913 43.122 12.962 43.346 13.185 L 45.726 15.576 C 45.988 15.838 46.144 16.198 46.144 16.567 C 46.154 16.936 45.988 17.286 45.707 17.519 C 45.697 17.529 45.687 17.529 45.687 17.538 L 45.61 17.597 L 40.664 22.562 C 40.538 22.688 40.372 22.756 40.197 22.756 C 40.023 22.766 39.857 22.708 39.731 22.591 C 39.682 22.552 39.624 22.523 39.566 22.523 L 39.537 22.523 C 39.449 22.543 39.372 22.601 39.333 22.679 C 39.323 22.717 39.313 22.747 39.313 22.776 C 39.313 22.844 39.342 22.902 39.381 22.951 C 39.498 23.077 39.556 23.242 39.546 23.417 C 39.546 23.592 39.469 23.757 39.352 23.874 L 17.606 45.717 C 17.597 45.717 17.587 45.726 17.587 45.726 C 17.305 45.989 16.946 46.125 16.567 46.125 C 16.188 46.125 15.828 45.989 15.547 45.726 C 15.547 45.726 15.537 45.717 15.527 45.717 L 13.147 43.317 C 12.913 43.083 12.884 42.734 13.059 42.462 C 13.351 42.015 13.584 41.548 13.759 41.043 C 13.934 40.557 14.021 40.042 14.021 39.527 C 14.021 38.06 13.438 36.641 12.398 35.592 C 11.359 34.552 9.95 33.96 8.473 33.96 C 7.958 33.96 7.433 34.057 6.947 34.232 C 6.462 34.416 5.985 34.649 5.548 34.931 C 5.286 35.106 4.926 35.067 4.703 34.834 L 2.313 32.444 C 2.303 32.434 2.303 32.434 2.293 32.424 C 2.04 32.152 1.904 31.783 1.904 31.404 C 1.904 31.025 2.04 30.666 2.293 30.384 C 2.303 30.384 2.303 30.374 2.313 30.364 L 24.126 8.589 C 24.253 8.463 24.427 8.395 24.612 8.395 C 24.787 8.395 24.962 8.463 25.088 8.599 C 25.127 8.638 25.185 8.667 25.244 8.677 L 25.36 8.657 C 25.428 8.628 25.487 8.58 25.506 8.512 L 25.525 8.385 C 25.516 8.327 25.496 8.269 25.457 8.23 C 25.331 8.104 25.263 7.929 25.263 7.754 C 25.263 7.569 25.331 7.404 25.457 7.278 L 30.442 2.303 C 30.442 2.303 30.452 2.293 30.461 2.293 C 30.733 2.031 31.103 1.895 31.472 1.904 Z  M 28.868 9.765 L 30.355 11.223 L 30.675 11.757 L 30.627 13.108 L 29.412 14.011 L 28.11 13.584 L 26.682 12.117 L 26.303 11.631 L 26.351 10.193 L 27.614 9.347 L 28.868 9.765 Z  M 32.803 13.681 L 34.29 15.168 L 34.61 15.702 L 34.562 17.062 L 33.308 17.956 L 32.036 17.529 L 30.559 16.042 L 30.238 15.508 L 30.287 14.157 L 31.491 13.253 L 32.803 13.681 Z  M 36.709 17.626 L 38.157 19.083 L 38.536 19.579 L 38.487 21.017 L 37.224 21.862 L 35.971 21.445 L 34.494 19.968 L 34.163 19.472 L 34.212 18.063 L 35.446 17.208 L 36.709 17.626 Z " fill-rule="evenodd" fill="rgb(255,255,255)"/></g></svg>