<?xml version="1.0" encoding="UTF-8" standalone="no"?><!-- Generator: Gravit.io --><svg xmlns="http://www.w3.org/2000/svg" xmlns:xlink="http://www.w3.org/1999/xlink" style="isolation:isolate" viewBox="0 0 100 100" width="100pt" height="100pt"><defs><clipPath id="_clipPath_lrqMNQeCSHho9iaRw9ltK4OeH7WcZvX8"><rect width="100" height="100"/></clipPath></defs><g clip-path="url(#_clipPath_lrqMNQeCSHho9iaRw9ltK4OeH7WcZvX8)"><path d=" M 69.475 6.5 C 68.398 6.5 67.359 6.884 66.55 7.687 L 60.967 13.229 L 57.577 9.799 C 56.768 8.995 55.663 8.611 54.586 8.611 C 53.509 8.611 52.471 8.995 51.662 9.799 L 1.214 59.871 C -0.405 61.478 -0.405 64.137 1.214 65.743 L 10.187 74.583 C 10.873 75.269 11.941 75.405 12.779 74.913 C 14.341 73.981 16.339 74.159 17.697 75.507 C 19.055 76.854 19.234 78.837 18.296 80.389 C 17.8 81.221 17.937 82.281 18.628 82.962 L 27.534 91.868 C 29.153 93.474 31.832 93.474 33.45 91.868 L 38.967 86.326 L 42.423 89.757 C 44.041 91.363 46.72 91.363 48.338 89.757 L 98.786 39.684 C 100.405 38.078 100.405 35.419 98.786 33.812 L 89.813 24.972 C 89.127 24.286 88.059 24.15 87.221 24.642 C 85.658 25.574 83.66 25.396 82.303 24.049 C 80.944 22.7 80.765 20.718 81.704 19.167 C 82.2 18.335 82.063 17.275 81.372 16.594 L 72.466 7.687 C 71.656 6.884 70.552 6.5 69.475 6.5 Z  M 69.475 10.722 L 69.541 10.722 L 77.65 18.837 C 76.75 21.677 77.055 24.777 79.312 27.017 C 81.569 29.258 84.693 29.559 87.553 28.667 L 95.729 36.715 L 95.729 36.781 L 45.414 86.722 L 45.347 86.722 L 42.024 83.357 L 77.65 47.996 L 78.315 48.656 C 78.849 49.198 79.634 49.417 80.374 49.228 C 81.115 49.04 81.698 48.474 81.903 47.744 C 82.109 47.013 81.907 46.229 81.372 45.687 L 80.707 45.028 L 83.898 41.795 C 85.513 40.188 85.519 37.529 83.898 35.924 L 74.925 27.083 C 74.239 26.397 73.171 26.261 72.333 26.753 C 70.77 27.686 68.772 27.508 67.414 26.16 C 66.057 24.812 65.878 22.83 66.816 21.278 C 67.312 20.446 67.175 19.386 66.484 18.705 L 64.024 16.198 L 69.475 10.722 Z  M 54.586 12.833 L 54.653 12.833 L 58.84 16.99 C 59.044 17.691 59.596 18.239 60.302 18.441 L 62.762 20.948 C 61.863 23.787 62.166 26.888 64.423 29.128 C 66.68 31.368 69.804 31.671 72.665 30.778 L 80.84 38.892 L 76.52 43.246 C 76.474 43.288 76.429 43.332 76.387 43.378 L 76.188 43.51 C 76.088 43.611 75.999 43.722 75.922 43.84 L 38.169 81.18 C 37.488 81.402 36.964 81.946 36.773 82.632 L 30.525 88.833 L 22.35 80.719 C 23.249 77.879 22.945 74.778 20.688 72.538 C 18.432 70.298 15.308 69.995 12.447 70.889 L 4.271 62.84 L 4.271 62.774 L 43.885 23.455 L 45.68 24.115 L 47.275 22.993 L 47.341 21.08 L 46.876 20.486 L 54.586 12.833 Z  M 49.601 24.378 L 48.072 25.434 L 48.006 27.347 L 48.405 27.941 L 49.934 29.458 L 51.728 30.052 L 53.257 28.996 L 53.323 27.083 L 52.925 26.49 L 51.396 24.972 L 49.601 24.378 Z  M 55.65 30.382 L 54.054 31.437 L 53.988 33.351 L 54.453 33.944 L 55.916 35.396 L 57.71 36.055 L 59.305 34.934 L 59.372 33.021 L 58.906 32.427 L 57.444 30.976 L 55.65 30.382 Z  M 61.632 36.319 L 60.103 37.375 L 60.036 39.288 L 60.435 39.882 L 61.964 41.399 L 63.759 41.993 L 65.287 40.937 L 65.354 39.024 L 64.955 38.43 L 63.426 36.913 L 61.632 36.319 Z  M 67.68 42.323 L 66.085 43.378 L 66.018 45.292 L 66.484 45.885 L 67.946 47.403 L 69.741 47.996 L 71.336 46.875 L 71.402 45.028 L 71.003 44.368 L 69.475 42.917 L 67.68 42.323 Z " fill="rgb(0,0,0)"/></g></svg>