<?xml version="1.0" encoding="UTF-8" standalone="no"?><!-- Generator: Gravit.io --><svg xmlns="http://www.w3.org/2000/svg" xmlns:xlink="http://www.w3.org/1999/xlink" style="isolation:isolate" viewBox="0 0 48 48" width="48pt" height="48pt"><defs><clipPath id="_clipPath_FTCcf1LrjDya6iApgLLZISdE85DUqUgl"><rect width="48" height="48"/></clipPath></defs><g clip-path="url(#_clipPath_FTCcf1LrjDya6iApgLLZISdE85DUqUgl)"><linearGradient id="_lgradient_0" x1="0.08795774139762644" y1="0.8569154475628639" x2="0.6165879975454162" y2="-0.04305324005070432" gradientTransform="matrix(36.61,0,0,46.406,5.5,0.794)" gradientUnits="userSpaceOnUse"><stop offset="0%" stop-opacity="1" style="stop-color:rgb(17,166,233)"/><stop offset="100%" stop-opacity="1" style="stop-color:rgb(233,243,99)"/></linearGradient><path d=" M 35.74 12.36 C 35.869 12.23 36.069 12.201 36.23 12.29 C 36.75 12.58 37 12.72 37.5 13.03 C 38.93 11.205 40.47 9.469 42.11 7.83 C 40.192 6.433 38.106 5.284 35.9 4.41 C 33.33 6.62 29.39 6.89 26.25 6.13 C 22.75 5.27 21.33 3 22.93 1 C 20.862 0.725 18.768 0.725 16.7 1 C 15.308 2.753 14.092 4.638 13.07 6.63 C 13.52 6.63 13.74 6.63 14.21 6.57 C 14.36 6.57 14.42 6.67 14.35 6.8 L 14.18 7.1 C 14.098 7.246 13.947 7.341 13.78 7.35 L 12.66 7.41 C 8.08 17 5.31 26.84 5.51 37.5 C 7.16 38.77 8.87 39.98 10.61 41.13 C 10.975 37.197 11.777 33.316 13 29.56 C 12.4 27.56 12.1 26.56 11.5 24.7 C 11.344 24.071 11.566 23.408 12.07 23 C 12.27 22.811 12.553 22.74 12.818 22.811 C 13.083 22.883 13.292 23.087 13.37 23.35 C 13.71 24.4 13.87 24.95 14.2 26.06 C 15.254 23.197 16.469 20.396 17.84 17.67 C 18.148 17.033 18.844 16.681 19.54 16.81 C 19.832 16.912 20.06 17.144 20.158 17.437 C 20.256 17.731 20.212 18.053 20.04 18.31 C 19.14 20.01 18.7 20.88 17.88 22.65 C 19.05 22.02 19.66 21.71 20.93 21.12 C 21.211 20.956 21.551 20.928 21.854 21.045 C 22.158 21.162 22.392 21.41 22.49 21.72 C 22.628 22.433 22.249 23.146 21.58 23.43 C 19.777 24.223 18.026 25.132 16.34 26.15 C 15.58 28 15.22 28.93 14.6 30.8 C 15.6 30.16 16.08 29.8 17.17 29.22 C 17.431 29.06 17.753 29.039 18.033 29.162 C 18.312 29.286 18.513 29.54 18.57 29.84 C 18.74 30.535 18.446 31.26 17.84 31.64 C 16.334 32.44 14.888 33.346 13.51 34.35 C 12.752 36.86 12.246 39.439 12 42.05 C 14.77 43.84 17.61 45.52 20.45 47.2 C 23 34.66 29.19 23.86 36.89 13.78 C 36.39 13.48 36.13 13.34 35.62 13.05 C 35.544 13.02 35.487 12.956 35.465 12.877 C 35.444 12.799 35.46 12.715 35.51 12.65 L 35.74 12.36 Z  M 17.51 6.9 L 17.33 7.2 C 17.232 7.346 17.066 7.433 16.89 7.43 C 16.03 7.37 15.6 7.34 14.79 7.34 C 14.64 7.34 14.58 7.22 14.65 7.09 C 14.72 6.96 14.75 6.9 14.82 6.79 C 14.906 6.644 15.06 6.55 15.23 6.54 C 16.05 6.54 16.48 6.54 17.35 6.63 C 17.52 6.64 17.59 6.76 17.51 6.9 Z  M 20.93 7.33 C 20.85 7.45 20.82 7.52 20.74 7.64 C 20.626 7.78 20.45 7.855 20.27 7.84 C 19.34 7.69 18.89 7.63 18 7.53 C 17.93 7.539 17.862 7.504 17.829 7.442 C 17.795 7.38 17.804 7.303 17.85 7.25 L 18 7 C 18.098 6.85 18.271 6.765 18.45 6.78 C 19.35 6.87 19.81 6.93 20.74 7.08 C 21 7.06 21 7.19 20.93 7.33 Z  M 24.52 8.08 L 24.31 8.38 C 24.192 8.531 23.996 8.598 23.81 8.55 C 22.86 8.32 22.39 8.22 21.45 8.05 C 21.27 8.05 21.2 7.87 21.29 7.73 L 21.48 7.43 C 21.602 7.272 21.805 7.198 22 7.24 C 22.94 7.42 23.42 7.52 24.39 7.75 C 24.461 7.764 24.519 7.812 24.546 7.879 C 24.572 7.946 24.562 8.022 24.52 8.08 Z  M 28.16 9.13 L 27.95 9.43 C 27.821 9.57 27.623 9.624 27.44 9.57 C 26.44 9.26 25.99 9.12 25.03 8.86 C 24.85 8.86 24.78 8.66 24.88 8.53 C 24.944 8.423 25.014 8.319 25.09 8.22 C 25.21 8.072 25.406 8.009 25.59 8.06 C 26.59 8.32 27.05 8.46 28.01 8.77 C 28.19 8.83 28.26 9 28.16 9.13 Z  M 31.76 10.46 L 31.54 10.76 C 31.411 10.902 31.206 10.946 31.03 10.87 C 30.09 10.49 29.61 10.31 28.66 9.98 C 28.47 9.91 28.41 9.75 28.51 9.62 L 28.73 9.32 C 28.854 9.171 29.06 9.119 29.24 9.19 C 30.24 9.52 30.69 9.7 31.63 10.09 C 31.81 10.16 31.87 10.33 31.76 10.46 Z  M 35.22 12.08 L 34.99 12.37 C 34.859 12.503 34.659 12.539 34.49 12.46 C 33.6 12 33.14 11.78 32.22 11.38 C 32.141 11.357 32.079 11.297 32.053 11.219 C 32.027 11.141 32.041 11.056 32.09 10.99 L 32.32 10.7 C 32.448 10.564 32.649 10.524 32.82 10.6 C 33.75 11.01 34.21 11.23 35.11 11.69 C 35.185 11.718 35.243 11.78 35.265 11.857 C 35.286 11.934 35.27 12.017 35.22 12.08 Z " fill="url(#_lgradient_0)"/></g></svg>